<?xml version="1.0" encoding="UTF-8" standalone="no"?>
<!-- Created with Inkscape (http://www.inkscape.org/) -->

<svg
   version="1.1"
   id="svg2"
   width="512.21051"
   height="165.13683"
   viewBox="0 0 512.21051 165.13683"
   xmlns="http://www.w3.org/2000/svg"
   xmlns:svg="http://www.w3.org/2000/svg">
  <defs
     id="defs6">
    <clipPath
       clipPathUnits="userSpaceOnUse"
       id="clipPath334">
      <path
         d="m 59.184,102.105 h 7.141 v 7 h -7.141 z"
         id="path332" />
    </clipPath>
    <clipPath
       clipPathUnits="userSpaceOnUse"
       id="clipPath344">
      <path
         d="M 0,0 H 385 V 124 H 0 Z"
         id="path342" />
    </clipPath>
    <clipPath
       clipPathUnits="userSpaceOnUse"
       id="clipPath364">
      <path
         d="m 201.266,102.105 h 7.059 v 8 h -7.059 z"
         id="path362" />
    </clipPath>
    <clipPath
       clipPathUnits="userSpaceOnUse"
       id="clipPath374">
      <path
         d="M 0,0 H 385 V 124 H 0 Z"
         id="path372" />
    </clipPath>
    <clipPath
       clipPathUnits="userSpaceOnUse"
       id="clipPath394">
      <path
         d="m 359.156,103.105 h 7.168 v 8 h -7.168 z"
         id="path392" />
    </clipPath>
    <clipPath
       clipPathUnits="userSpaceOnUse"
       id="clipPath404">
      <path
         d="M 0,0 H 385 V 124 H 0 Z"
         id="path402" />
    </clipPath>
    <clipPath
       clipPathUnits="userSpaceOnUse"
       id="clipPath432">
      <path
         d="m 255.508,9.105 h 6.805 v 9 h -6.805 z"
         id="path430" />
    </clipPath>
    <clipPath
       clipPathUnits="userSpaceOnUse"
       id="clipPath442">
      <path
         d="M 0,0 H 385 V 124 H 0 Z"
         id="path440" />
    </clipPath>
  </defs>
  <g
     id="g10"
     transform="matrix(1.3333333,0,0,1.3333333,0,3.4617541e-6)">
    <g
       id="g12">
      <path
         d="M 25.367,6.812 H 51.719 V 19.988 H 25.367 Z m 141.75,0.11 h 26.352 v 13.176 h -26.352 z m 159.649,-0.11 h 24.707 v 13.176 h -24.707 z m -275.047,6.7 h 59.289"
         style="fill:none;stroke:#000000;stroke-width:0.454755;stroke-linecap:round;stroke-linejoin:round;stroke-miterlimit:10;stroke-dasharray:none;stroke-opacity:1"
         id="path14" />
      <path
         d="m 111.008,13.512 -5.488,-2.746 2.746,2.746 z"
         style="fill:#000000;fill-opacity:1;fill-rule:evenodd;stroke:#000000;stroke-width:0.454755;stroke-linecap:round;stroke-linejoin:round;stroke-miterlimit:10;stroke-dasharray:none;stroke-opacity:1"
         id="path16" />
      <path
         d="m 111.008,13.512 -5.488,2.742 2.746,-2.742 z"
         style="fill:#000000;fill-opacity:1;fill-rule:evenodd;stroke:#000000;stroke-width:0.454755;stroke-linecap:round;stroke-linejoin:round;stroke-miterlimit:10;stroke-dasharray:none;stroke-opacity:1"
         id="path18" />
      <path
         d="m 193.469,13.512 h 59.293"
         style="fill:none;stroke:#000000;stroke-width:0.454755;stroke-linecap:round;stroke-linejoin:round;stroke-miterlimit:10;stroke-dasharray:none;stroke-opacity:1"
         id="path20" />
      <path
         d="m 252.762,13.512 -5.492,-2.746 2.746,2.746 z"
         style="fill:#000000;fill-opacity:1;fill-rule:evenodd;stroke:#000000;stroke-width:0.454755;stroke-linecap:round;stroke-linejoin:round;stroke-miterlimit:10;stroke-dasharray:none;stroke-opacity:1"
         id="path22" />
      <path
         d="m 252.762,13.512 -5.492,2.742 2.746,-2.742 z"
         style="fill:#000000;fill-opacity:1;fill-rule:evenodd;stroke:#000000;stroke-width:0.454755;stroke-linecap:round;stroke-linejoin:round;stroke-miterlimit:10;stroke-dasharray:none;stroke-opacity:1"
         id="path24" />
      <path
         d="m 35.793,11.105 h -0.219 c -0.015,0.11 -0.062,0.344 -0.344,0.344 -0.25,0 -0.796,-0.344 -1.406,-0.344 -0.906,0 -1.812,0.563 -1.812,1.704 0,1 0.64,1.437 1.562,1.968 1.485,0.875 1.641,1.219 1.641,1.782 0,0.546 -0.406,1.125 -1.203,1.125 -1.36,0 -1.875,-1.313 -2.063,-1.782 h -0.234 l 0.297,2.125 h 0.234 c 0,-0.156 0.094,-0.328 0.297,-0.328 0.312,0 0.797,0.344 1.562,0.344 1.438,0 2.125,-0.969 2.125,-1.828 0,-2.063 -3.359,-2.25 -3.359,-3.766 0,-0.625 0.516,-0.937 1.016,-0.937 1.062,0 1.703,0.906 1.875,1.734 h 0.25 z"
         style="fill:#000000;fill-opacity:1;fill-rule:nonzero;stroke:none"
         id="path26" />
      <path
         d="m 39.781,11.105 h -0.672 l -2.312,6.938 h 0.687 z"
         style="fill:#000000;fill-opacity:1;fill-rule:nonzero;stroke:none"
         id="path28" />
      <path
         d="m 39.941,17.902 h 2.797 v -0.187 c -0.781,-0.047 -0.875,-0.25 -0.875,-0.906 V 14.73 h 3.047 v 1.969 c 0,0.75 -0.047,0.969 -0.89,1.016 v 0.187 h 2.796 v -0.187 c -0.781,-0.047 -0.89,-0.25 -0.89,-0.906 V 12.34 c 0,-0.719 0.125,-0.844 0.89,-0.906 V 11.246 H 44.02 v 0.188 c 0.75,0.062 0.89,0.156 0.89,0.906 v 1.953 H 41.863 V 12.34 c 0,-0.719 0.11,-0.844 0.875,-0.906 v -0.188 h -2.797 v 0.188 c 0.75,0.062 0.891,0.156 0.891,0.906 v 4.359 c 0,0.75 -0.047,0.969 -0.891,1.016 z"
         style="fill:#000000;fill-opacity:1;fill-rule:nonzero;stroke:none"
         id="path30" />
      <path
         d="m 176.891,10.441 h -0.219 c -0.016,0.11 -0.063,0.344 -0.344,0.344 -0.25,0 -0.797,-0.344 -1.406,-0.344 -0.906,0 -1.813,0.563 -1.813,1.704 0,1 0.641,1.437 1.563,1.968 1.484,0.875 1.64,1.219 1.64,1.782 0,0.546 -0.406,1.125 -1.203,1.125 -1.359,0 -1.875,-1.313 -2.062,-1.782 h -0.235 l 0.297,2.125 h 0.235 c 0,-0.156 0.094,-0.328 0.297,-0.328 0.312,0 0.797,0.344 1.562,0.344 1.438,0 2.125,-0.969 2.125,-1.828 0,-2.063 -3.359,-2.25 -3.359,-3.766 0,-0.625 0.515,-0.937 1.015,-0.937 1.063,0 1.704,0.906 1.875,1.734 h 0.25 z"
         style="fill:#000000;fill-opacity:1;fill-rule:nonzero;stroke:none"
         id="path32" />
      <path
         d="m 180.879,10.441 h -0.672 l -2.312,6.938 h 0.687 z"
         style="fill:#000000;fill-opacity:1;fill-rule:nonzero;stroke:none"
         id="path34" />
      <path
         d="m 181.035,17.238 h 2.797 v -0.187 c -0.781,-0.047 -0.875,-0.25 -0.875,-0.906 v -2.079 h 3.047 v 1.969 c 0,0.75 -0.047,0.969 -0.891,1.016 v 0.187 h 2.797 v -0.187 c -0.781,-0.047 -0.89,-0.25 -0.89,-0.906 v -4.469 c 0,-0.719 0.125,-0.844 0.89,-0.906 v -0.188 h -2.797 v 0.188 c 0.75,0.062 0.891,0.156 0.891,0.906 v 1.953 h -3.047 v -1.953 c 0,-0.719 0.109,-0.844 0.875,-0.906 v -0.188 h -2.797 v 0.188 c 0.75,0.062 0.891,0.156 0.891,0.906 v 4.359 c 0,0.75 -0.047,0.969 -0.891,1.016 z"
         style="fill:#000000;fill-opacity:1;fill-rule:nonzero;stroke:none"
         id="path36" />
      <path
         d="M 335.219,9.887 H 335 c -0.016,0.109 -0.062,0.343 -0.344,0.343 -0.25,0 -0.797,-0.343 -1.406,-0.343 -0.906,0 -1.812,0.562 -1.812,1.703 0,1 0.64,1.437 1.562,1.969 1.484,0.875 1.641,1.218 1.641,1.781 0,0.547 -0.407,1.125 -1.203,1.125 -1.36,0 -1.876,-1.313 -2.063,-1.781 h -0.234 l 0.297,2.125 h 0.234 c 0,-0.157 0.094,-0.329 0.297,-0.329 0.312,0 0.797,0.344 1.562,0.344 1.438,0 2.125,-0.969 2.125,-1.828 0,-2.062 -3.359,-2.25 -3.359,-3.766 0,-0.625 0.515,-0.937 1.015,-0.937 1.063,0 1.704,0.906 1.876,1.734 h 0.25 z"
         style="fill:#000000;fill-opacity:1;fill-rule:nonzero;stroke:none"
         id="path38" />
      <path
         d="m 339.207,9.887 h -0.672 l -2.312,6.937 h 0.687 z"
         style="fill:#000000;fill-opacity:1;fill-rule:nonzero;stroke:none"
         id="path40" />
      <path
         d="m 339.363,16.684 h 2.797 v -0.188 c -0.781,-0.047 -0.875,-0.25 -0.875,-0.906 v -2.078 h 3.047 v 1.968 c 0,0.75 -0.047,0.969 -0.891,1.016 v 0.188 h 2.797 v -0.188 c -0.781,-0.047 -0.89,-0.25 -0.89,-0.906 v -4.469 c 0,-0.719 0.125,-0.844 0.89,-0.906 v -0.188 h -2.797 v 0.188 c 0.75,0.062 0.891,0.156 0.891,0.906 v 1.953 h -3.047 v -1.953 c 0,-0.719 0.11,-0.844 0.875,-0.906 v -0.188 h -2.797 v 0.188 c 0.75,0.062 0.891,0.156 0.891,0.906 v 4.359 c 0,0.75 -0.047,0.969 -0.891,1.016 z"
         style="fill:#000000;fill-opacity:1;fill-rule:nonzero;stroke:none"
         id="path42" />
      <path
         d="M 25.477,13.402 H 13.836"
         style="fill:none;stroke:#000000;stroke-width:0.454755;stroke-linecap:round;stroke-linejoin:round;stroke-miterlimit:10;stroke-dasharray:none;stroke-opacity:1"
         id="path44" />
      <path
         d="m 167.008,13.402 h -9.883"
         style="fill:none;stroke:#000000;stroke-width:0.454755;stroke-linecap:round;stroke-linejoin:round;stroke-miterlimit:10;stroke-dasharray:none;stroke-opacity:1"
         id="path46" />
      <path
         d="m 326.875,13.402 h -8.344"
         style="fill:none;stroke:#000000;stroke-width:0.454755;stroke-linecap:round;stroke-linejoin:round;stroke-miterlimit:10;stroke-dasharray:none;stroke-opacity:1"
         id="path48" />
      <path
         d="M 58.305,13.402 V 34.043"
         style="fill:none;stroke:#000000;stroke-width:0.454755;stroke-linecap:round;stroke-linejoin:round;stroke-miterlimit:10;stroke-dasharray:none;stroke-opacity:1"
         id="path50" />
      <path
         d="M 200.059,13.512 V 34.043"
         style="fill:none;stroke:#000000;stroke-width:0.454755;stroke-linecap:round;stroke-linejoin:round;stroke-miterlimit:10;stroke-dasharray:none;stroke-opacity:1"
         id="path52" />
      <path
         d="M 358.059,13.402 V 33.164"
         style="fill:none;stroke:#000000;stroke-width:0.454755;stroke-linecap:round;stroke-linejoin:round;stroke-miterlimit:10;stroke-dasharray:none;stroke-opacity:1"
         id="path54" />
      <path
         d="M 81.363,33.492 H 48.422"
         style="fill:none;stroke:#000000;stroke-width:0.454755;stroke-linecap:round;stroke-linejoin:round;stroke-miterlimit:10;stroke-dasharray:none;stroke-opacity:1"
         id="path56" />
      <path
         d="M 81.363,33.492 64.895,59.848"
         style="fill:none;stroke:#000000;stroke-width:0.454755;stroke-linecap:round;stroke-linejoin:round;stroke-miterlimit:10;stroke-dasharray:none;stroke-opacity:1"
         id="path58" />
      <path
         d="M 48.422,33.492 64.895,59.848"
         style="fill:none;stroke:#000000;stroke-width:0.454755;stroke-linecap:round;stroke-linejoin:round;stroke-miterlimit:10;stroke-dasharray:none;stroke-opacity:1"
         id="path60" />
      <path
         d="M 223.117,33.605 H 190.176"
         style="fill:none;stroke:#000000;stroke-width:0.454755;stroke-linecap:round;stroke-linejoin:round;stroke-miterlimit:10;stroke-dasharray:none;stroke-opacity:1"
         id="path62" />
      <path
         d="M 223.117,33.605 206.645,59.957"
         style="fill:none;stroke:#000000;stroke-width:0.454755;stroke-linecap:round;stroke-linejoin:round;stroke-miterlimit:10;stroke-dasharray:none;stroke-opacity:1"
         id="path64" />
      <path
         d="m 190.176,33.605 16.469,26.352"
         style="fill:none;stroke:#000000;stroke-width:0.454755;stroke-linecap:round;stroke-linejoin:round;stroke-miterlimit:10;stroke-dasharray:none;stroke-opacity:1"
         id="path66" />
      <path
         d="M 381.117,33.164 H 348.176"
         style="fill:none;stroke:#000000;stroke-width:0.454755;stroke-linecap:round;stroke-linejoin:round;stroke-miterlimit:10;stroke-dasharray:none;stroke-opacity:1"
         id="path68" />
      <path
         d="M 381.117,33.164 364.648,59.516"
         style="fill:none;stroke:#000000;stroke-width:0.454755;stroke-linecap:round;stroke-linejoin:round;stroke-miterlimit:10;stroke-dasharray:none;stroke-opacity:1"
         id="path70" />
      <path
         d="m 348.176,33.164 16.472,26.352"
         style="fill:none;stroke:#000000;stroke-width:0.454755;stroke-linecap:round;stroke-linejoin:round;stroke-miterlimit:10;stroke-dasharray:none;stroke-opacity:1"
         id="path72" />
      <path
         d="M 137.363,0.227 V 26.578"
         style="fill:none;stroke:#000000;stroke-width:0.22692;stroke-linecap:round;stroke-linejoin:round;stroke-miterlimit:10;stroke-dasharray:none;stroke-opacity:1"
         id="path74" />
      <path
         d="M 279.004,0.227 298.77,13.402"
         style="fill:none;stroke:#000000;stroke-width:0.454755;stroke-linecap:round;stroke-linejoin:round;stroke-miterlimit:10;stroke-dasharray:none;stroke-opacity:1"
         id="path76" />
      <path
         d="m 137.363,0.227 19.762,13.175"
         style="fill:none;stroke:#000000;stroke-width:0.454755;stroke-linecap:round;stroke-linejoin:round;stroke-miterlimit:10;stroke-dasharray:none;stroke-opacity:1"
         id="path78" />
      <path
         d="M 279.004,26.578 298.77,13.402"
         style="fill:none;stroke:#000000;stroke-width:0.454755;stroke-linecap:round;stroke-linejoin:round;stroke-miterlimit:10;stroke-dasharray:none;stroke-opacity:1"
         id="path80" />
      <path
         d="M 137.363,26.578 157.125,13.402"
         style="fill:none;stroke:#000000;stroke-width:0.454755;stroke-linecap:round;stroke-linejoin:round;stroke-miterlimit:10;stroke-dasharray:none;stroke-opacity:1"
         id="path82" />
      <path
         d="M 71.48,33.164 V 23.281"
         style="fill:none;stroke:#000000;stroke-width:0.454755;stroke-linecap:round;stroke-linejoin:round;stroke-miterlimit:10;stroke-dasharray:none;stroke-opacity:1"
         id="path84" />
      <path
         d="M 213.234,33.273 V 23.391"
         style="fill:none;stroke:#000000;stroke-width:0.454755;stroke-linecap:round;stroke-linejoin:round;stroke-miterlimit:10;stroke-dasharray:none;stroke-opacity:1"
         id="path86" />
      <path
         d="m 94.539,46.34 h 16.469"
         style="fill:none;stroke:#000000;stroke-width:0.454755;stroke-linecap:round;stroke-linejoin:round;stroke-miterlimit:10;stroke-dasharray:none;stroke-opacity:1"
         id="path88" />
      <path
         d="m 236.293,46.449 h 16.469"
         style="fill:none;stroke:#000000;stroke-width:0.454755;stroke-linecap:round;stroke-linejoin:round;stroke-miterlimit:10;stroke-dasharray:none;stroke-opacity:1"
         id="path90" />
      <path
         d="m 64.895,59.516 v 38.98"
         style="fill:none;stroke:#000000;stroke-width:0.454755;stroke-linecap:round;stroke-linejoin:round;stroke-miterlimit:10;stroke-dasharray:none;stroke-opacity:1"
         id="path92" />
      <path
         d="m 206.645,59.625 v 38.98"
         style="fill:none;stroke:#000000;stroke-width:0.454755;stroke-linecap:round;stroke-linejoin:round;stroke-miterlimit:10;stroke-dasharray:none;stroke-opacity:1"
         id="path94" />
      <path
         d="M 364.648,59.516 V 99.043"
         style="fill:none;stroke:#000000;stroke-width:0.454755;stroke-linecap:round;stroke-linejoin:round;stroke-miterlimit:10;stroke-dasharray:none;stroke-opacity:1"
         id="path96" />
      <path
         d="m 84.656,66.105 v -1.429 l 0.11,-0.219 v -0.109 l 0.113,-0.219 V 63.91 l 0.109,-0.222 v -0.329 l 0.11,-0.109 v -0.109 l 0.109,-0.219 V 62.59 l 0.109,-0.11 0.11,-0.218 v -0.11 l 0.109,-0.109 v -0.332 l 0.219,-0.219 0.113,-0.219 0.219,-0.218 v -0.11 l 0.109,-0.222 0.438,-0.438 v -0.109 l 0.109,-0.11 0.113,-0.218 0.547,-0.551 0.11,-0.219 0.109,-0.109 h 0.109 l 0.551,-0.551 h 0.11 l 0.218,-0.219 0.219,-0.109 0.223,-0.219 h 0.109 c 0.371,-0.164 1.305,-0.867 1.645,-0.879 l 0.113,-0.109 h 0.109 l 0.219,-0.11 h 0.328 l 0.11,-0.113 h 0.109 l 0.113,-0.109 h 0.438 l 0.109,-0.11 h 0.66 l 0.11,-0.109 h 0.769 l 0.219,-0.109 h 1.758 l 0.109,0.109 h 0.219 l 0.219,0.109 h 0.218 l 0.11,0.11 h 0.441 l 0.11,0.109 h 0.109 l 0.109,0.113 h 0.332 l 0.438,0.219 h 0.109 l 0.11,0.11 h 0.328 l 0.332,0.328 0.218,0.109 0.11,0.109 h 0.109 l 0.11,0.114 0.222,0.109 0.328,0.328 h 0.11 l 0.219,0.219 0.218,0.109 1.102,1.098 v 0.109 l 0.437,0.442 0.11,0.219 0.218,0.218 v 0.332 l 0.332,0.328 0.11,0.219 0.109,0.11 v 0.109 l 0.11,0.113 0.218,0.438 v 0.218 l 0.11,0.11 v 0.222 l 0.109,0.11 v 0.328 l 0.109,0.109 v 0.11 l 0.114,0.219 v 0.222 l 0.109,0.11 v 0.656 l 0.109,0.109 v 0.77 l 0.11,0.218 v 0.442 c -0.024,0.754 0.101,1.183 -0.219,1.867 v 0.328 l -0.109,0.219 v 0.223 l -0.114,0.109 v 0.109 l -0.109,0.11 v 0.328 l -0.219,0.441 v 0.219 l -0.109,0.109 v 0.219 l -0.328,0.328 -0.11,0.223 v 0.109 l -0.222,0.219 -0.11,0.219 -0.218,0.218 v 0.114 l -0.328,0.328 -0.11,0.219 -0.109,0.109 v 0.109 l -0.223,0.11 -0.328,0.332 c -0.512,0.582 -0.445,0.285 -0.879,0.769 l -0.219,0.219 -0.218,0.109 -0.11,0.11 h -0.222 l -0.219,0.109 -0.328,0.328 -0.219,0.11 H 98.93 L 98.82,75 98.383,75.219 h -0.219 l -0.109,0.109 h -0.223 l -0.109,0.11 h -0.328 l -0.11,0.109 h -0.109 l -0.219,0.109 h -0.223 l -0.109,0.11 h -0.656 l -0.114,0.109 H 95.09 l -0.223,0.113 h -0.328 c -0.437,0 -0.879,0 -1.316,0 h -0.11 l -0.218,-0.113 h -0.114 l -0.219,-0.109 h -0.437 l -0.109,-0.11 h -0.223 l -0.109,-0.109 h -0.11 l -0.219,-0.109 h -0.328 l -0.109,-0.11 -0.223,-0.109 h -0.218 l -0.219,-0.11 h -0.11 l -0.218,-0.222 -0.223,-0.11 -0.109,-0.109 h -0.11 L 89.379,74.559 89.16,74.449 88.828,74.121 H 88.719 L 88.5,73.902 88.281,73.789 88.062,73.57 h -0.109 l -0.109,-0.218 -0.114,-0.11 -0.218,-0.109 -0.11,-0.11 v -0.109 l -0.547,-0.551 v -0.109 l -0.332,-0.328 -0.109,-0.223 -0.109,-0.109 v -0.11 l -0.11,-0.109 -0.109,-0.219 v -0.109 l -0.219,-0.223 -0.113,-0.219 v -0.109 l -0.109,-0.109 -0.219,-0.438 v -0.113 l -0.11,-0.109 v -0.11 L 85.207,69.398 V 69.18 l -0.109,-0.219 v -0.109 l -0.11,-0.114 v -0.437 l -0.109,-0.11 v -0.66 l -0.113,-0.109 v -0.77 l -0.11,-0.218 z"
         style="fill:none;stroke:#000000;stroke-width:0.454755;stroke-linecap:round;stroke-linejoin:round;stroke-miterlimit:10;stroke-dasharray:none;stroke-opacity:1"
         id="path98" />
      <path
         d="M 94.539,56.223 V 43.047"
         style="fill:none;stroke:#000000;stroke-width:0.454755;stroke-linecap:round;stroke-linejoin:round;stroke-miterlimit:10;stroke-dasharray:none;stroke-opacity:1"
         id="path100" />
      <path
         d="M 94.539,75.988 V 89.164"
         style="fill:none;stroke:#000000;stroke-width:0.454755;stroke-linecap:round;stroke-linejoin:round;stroke-miterlimit:10;stroke-dasharray:none;stroke-opacity:1"
         id="path102" />
      <path
         d="m 94.539,59.516 v 5.929"
         style="fill:none;stroke:#000000;stroke-width:0.454755;stroke-linecap:round;stroke-linejoin:round;stroke-miterlimit:10;stroke-dasharray:none;stroke-opacity:1"
         id="path104" />
      <path
         d="m 92.125,62.043 h 5.16"
         style="fill:none;stroke:#000000;stroke-width:0.454755;stroke-linecap:round;stroke-linejoin:round;stroke-miterlimit:10;stroke-dasharray:none;stroke-opacity:1"
         id="path106" />
      <path
         d="m 92.125,69.508 h 5.16"
         style="fill:none;stroke:#000000;stroke-width:0.454755;stroke-linecap:round;stroke-linejoin:round;stroke-miterlimit:10;stroke-dasharray:none;stroke-opacity:1"
         id="path108" />
      <path
         d="m 226.41,66.215 v -1.317 l 0.11,-0.113 v -0.219 l 0.109,-0.109 V 63.91 l 0.109,-0.109 v -0.113 l 0.11,-0.219 v -0.328 l 0.109,-0.11 v -0.109 l 0.109,-0.223 V 62.59 l 0.114,-0.219 v -0.109 l 0.109,-0.219 v -0.109 l 0.109,-0.11 v -0.113 l 0.11,-0.219 0.328,-0.328 0.109,-0.219 v -0.109 l 0.551,-0.551 v -0.219 l 0.547,-0.55 0.113,-0.219 0.219,-0.109 v -0.11 l 0.109,-0.109 h 0.11 l 0.551,-0.551 h 0.109 l 0.219,-0.219 h 0.109 l 0.219,-0.219 0.219,-0.109 h 0.109 l 0.223,-0.223 h 0.218 l 0.328,-0.328 h 0.219 l 0.113,-0.109 0.219,-0.109 h 0.11 l 0.109,-0.11 h 0.219 l 0.109,-0.109 h 0.109 l 0.223,-0.11 h 0.219 l 0.219,-0.113 h 0.109 l 0.219,-0.109 c 0.75,0.062 0.82,-0.121 1.32,-0.11 h 0.328 l 0.219,-0.109 h 0.551 c 0.402,0 0.804,0 1.207,0 l 0.109,0.109 h 0.219 l 0.223,0.11 h 0.437 l 0.109,0.109 h 0.219 l 0.11,0.113 h 0.332 l 0.109,0.11 h 0.219 l 0.109,0.109 0.219,0.11 h 0.222 l 0.219,0.109 h 0.11 l 0.218,0.219 0.219,0.109 0.109,0.109 h 0.114 l 0.109,0.114 0.219,0.109 0.328,0.328 h 0.109 l 0.223,0.219 0.219,0.109 0.219,0.223 h 0.109 l 0.109,0.219 0.11,0.109 0.222,0.11 v 0.109 l 0.219,0.219 h 0.109 l 0.11,0.218 0.109,0.114 v 0.109 l 0.11,0.109 c 0.195,0.176 0.527,0.524 0.55,0.77 l 0.11,0.109 0.109,0.219 v 0.109 l 0.219,0.219 0.109,0.219 v 0.113 l 0.11,0.11 0.113,0.218 0.109,0.11 v 0.218 l 0.11,0.11 v 0.222 l 0.109,0.219 v 0.11 l 0.109,0.218 v 0.11 l 0.11,0.109 v 0.332 l 0.109,0.219 v 0.437 l 0.109,0.219 v 0.879 l 0.11,0.223 v 0.328 c 0,0.328 0,0.66 0,0.988 v 0.328 l -0.11,0.219 v 0.551 l -0.109,0.109 v 0.11 l -0.109,0.218 v 0.332 l -0.11,0.11 v 0.109 l -0.109,0.109 v 0.219 l -0.109,0.219 v 0.113 l -0.11,0.219 v 0.109 l -0.109,0.11 v 0.109 l -0.113,0.219 -0.219,0.223 v 0.109 l -0.11,0.219 -0.328,0.328 -0.109,0.218 v 0.114 h -0.109 l -0.114,0.219 -0.328,0.328 v 0.218 h -0.109 l -0.11,0.223 -0.218,0.109 -0.332,0.329 v 0.109 l -0.11,0.109 h -0.218 l -0.219,0.219 v 0.113 l -0.219,0.11 L 242,74.34 h -0.219 l -0.109,0.109 h -0.11 l -0.109,0.11 -0.223,0.109 -0.218,0.219 h -0.11 l -0.218,0.113 -0.11,0.109 -0.219,0.11 h -0.109 l -0.223,0.109 h -0.109 l -0.109,0.11 h -0.328 l -0.11,0.109 h -0.109 l -0.223,0.109 h -0.109 l -0.219,0.11 h -0.328 l -0.109,0.109 h -0.442 l -0.219,0.113 h -0.879 l -0.218,0.11 h -0.551 c -0.293,0 -0.586,0 -0.879,0 l -0.219,-0.11 h -0.328 l -0.219,-0.113 h -0.222 l -0.11,-0.109 h -0.437 l -0.109,-0.11 h -0.11 l -0.109,-0.109 h -0.223 l -0.109,-0.109 h -0.219 l -0.219,-0.11 h -0.109 l -0.11,-0.109 h -0.332 l -0.328,-0.332 -0.218,-0.11 -0.11,-0.109 h -0.113 l -0.109,-0.109 -0.219,-0.11 -0.328,-0.328 h -0.11 l -0.218,-0.219 -0.223,-0.113 -1.098,-1.098 v -0.109 l -0.437,-0.437 -0.11,-0.219 -0.222,-0.223 v -0.109 l -0.11,-0.219 v -0.109 l -0.218,-0.219 -0.11,-0.223 -0.109,-0.109 v -0.11 l -0.11,-0.109 c -0.414,-0.648 -0.058,-0.562 -0.332,-0.769 v -0.219 l -0.109,-0.11 V 69.18 l -0.109,-0.11 v -0.218 l -0.11,-0.223 V 68.41 l -0.109,-0.109 v -0.328 c 0.051,-0.797 -0.149,-0.352 -0.109,-0.879 v -0.551 l -0.11,-0.109 z"
         style="fill:none;stroke:#000000;stroke-width:0.454755;stroke-linecap:round;stroke-linejoin:round;stroke-miterlimit:10;stroke-dasharray:none;stroke-opacity:1"
         id="path110" />
      <path
         d="M 236.293,56.332 V 43.156"
         style="fill:none;stroke:#000000;stroke-width:0.454755;stroke-linecap:round;stroke-linejoin:round;stroke-miterlimit:10;stroke-dasharray:none;stroke-opacity:1"
         id="path112" />
      <path
         d="M 236.293,76.098 V 89.273"
         style="fill:none;stroke:#000000;stroke-width:0.454755;stroke-linecap:round;stroke-linejoin:round;stroke-miterlimit:10;stroke-dasharray:none;stroke-opacity:1"
         id="path114" />
      <path
         d="m 236.293,59.625 v 5.93"
         style="fill:none;stroke:#000000;stroke-width:0.454755;stroke-linecap:round;stroke-linejoin:round;stroke-miterlimit:10;stroke-dasharray:none;stroke-opacity:1"
         id="path116" />
      <path
         d="m 233.875,62.043 h 5.16"
         style="fill:none;stroke:#000000;stroke-width:0.454755;stroke-linecap:round;stroke-linejoin:round;stroke-miterlimit:10;stroke-dasharray:none;stroke-opacity:1"
         id="path118" />
      <path
         d="m 233.875,69.617 h 5.16"
         style="fill:none;stroke:#000000;stroke-width:0.454755;stroke-linecap:round;stroke-linejoin:round;stroke-miterlimit:10;stroke-dasharray:none;stroke-opacity:1"
         id="path120" />
      <path
         d="m 94.539,85.867 v 6.59"
         style="fill:none;stroke:#000000;stroke-width:0.454755;stroke-linecap:round;stroke-linejoin:round;stroke-miterlimit:10;stroke-dasharray:none;stroke-opacity:1"
         id="path122" />
      <path
         d="m 87.953,92.457 h 13.176"
         style="fill:none;stroke:#000000;stroke-width:0.454755;stroke-linecap:round;stroke-linejoin:round;stroke-miterlimit:10;stroke-dasharray:none;stroke-opacity:1"
         id="path124" />
      <path
         d="m 87.953,92.457 6.586,6.586"
         style="fill:none;stroke:#000000;stroke-width:0.454755;stroke-linecap:round;stroke-linejoin:round;stroke-miterlimit:10;stroke-dasharray:none;stroke-opacity:1"
         id="path126" />
      <path
         d="m 101.129,92.457 -6.59,6.586"
         style="fill:none;stroke:#000000;stroke-width:0.454755;stroke-linecap:round;stroke-linejoin:round;stroke-miterlimit:10;stroke-dasharray:none;stroke-opacity:1"
         id="path128" />
      <path
         d="m 236.293,85.977 v 6.589"
         style="fill:none;stroke:#000000;stroke-width:0.454755;stroke-linecap:round;stroke-linejoin:round;stroke-miterlimit:10;stroke-dasharray:none;stroke-opacity:1"
         id="path130" />
      <path
         d="m 229.703,92.566 h 13.176"
         style="fill:none;stroke:#000000;stroke-width:0.454755;stroke-linecap:round;stroke-linejoin:round;stroke-miterlimit:10;stroke-dasharray:none;stroke-opacity:1"
         id="path132" />
      <path
         d="m 229.703,92.566 6.59,6.59"
         style="fill:none;stroke:#000000;stroke-width:0.454755;stroke-linecap:round;stroke-linejoin:round;stroke-miterlimit:10;stroke-dasharray:none;stroke-opacity:1"
         id="path134" />
      <path
         d="m 242.879,92.566 -6.586,6.59"
         style="fill:none;stroke:#000000;stroke-width:0.454755;stroke-linecap:round;stroke-linejoin:round;stroke-miterlimit:10;stroke-dasharray:none;stroke-opacity:1"
         id="path136" />
      <path
         d="m 94.539,85.867 h 46.117"
         style="fill:none;stroke:#000000;stroke-width:0.454755;stroke-linecap:round;stroke-linejoin:round;stroke-miterlimit:10;stroke-dasharray:none;stroke-opacity:1"
         id="path138" />
      <path
         d="m 236.293,85.977 h 46.113"
         style="fill:none;stroke:#000000;stroke-width:0.454755;stroke-linecap:round;stroke-linejoin:round;stroke-miterlimit:10;stroke-dasharray:none;stroke-opacity:1"
         id="path140" />
      <path
         d="M 140.656,46.34 V 85.867"
         style="fill:none;stroke:#000000;stroke-width:0.454755;stroke-linecap:round;stroke-linejoin:round;stroke-miterlimit:10;stroke-dasharray:none;stroke-opacity:1"
         id="path142" />
      <path
         d="M 282.516,46.449 V 85.977"
         style="fill:none;stroke:#000000;stroke-width:0.454755;stroke-linecap:round;stroke-linejoin:round;stroke-miterlimit:10;stroke-dasharray:none;stroke-opacity:1"
         id="path144" />
      <path
         d="m 124.188,46.34 h 16.468"
         style="fill:none;stroke:#000000;stroke-width:0.454755;stroke-linecap:round;stroke-linejoin:round;stroke-miterlimit:10;stroke-dasharray:none;stroke-opacity:1"
         id="path146" />
      <path
         d="m 265.938,46.449 h 16.468"
         style="fill:none;stroke:#000000;stroke-width:0.454755;stroke-linecap:round;stroke-linejoin:round;stroke-miterlimit:10;stroke-dasharray:none;stroke-opacity:1"
         id="path148" />
      <path
         d="m 117.598,36.457 -6.59,13.176"
         style="fill:none;stroke:#000000;stroke-width:0.454755;stroke-linecap:round;stroke-linejoin:round;stroke-miterlimit:10;stroke-dasharray:none;stroke-opacity:1"
         id="path150" />
      <path
         d="m 259.348,36.57 -6.586,13.176"
         style="fill:none;stroke:#000000;stroke-width:0.454755;stroke-linecap:round;stroke-linejoin:round;stroke-miterlimit:10;stroke-dasharray:none;stroke-opacity:1"
         id="path152" />
      <path
         d="M 117.598,36.457 V 19.988"
         style="fill:none;stroke:#000000;stroke-width:0.454755;stroke-linecap:round;stroke-linejoin:round;stroke-miterlimit:10;stroke-dasharray:none;stroke-opacity:1"
         id="path154" />
      <path
         d="m 117.598,19.988 -2.746,5.492 2.746,-2.746 z"
         style="fill:#000000;fill-opacity:1;fill-rule:evenodd;stroke:#000000;stroke-width:0.454755;stroke-linecap:round;stroke-linejoin:round;stroke-miterlimit:10;stroke-dasharray:none;stroke-opacity:1"
         id="path156" />
      <path
         d="m 117.598,19.988 2.746,5.492 -2.746,-2.746 z"
         style="fill:#000000;fill-opacity:1;fill-rule:evenodd;stroke:#000000;stroke-width:0.454755;stroke-linecap:round;stroke-linejoin:round;stroke-miterlimit:10;stroke-dasharray:none;stroke-opacity:1"
         id="path158" />
      <path
         d="M 259.348,36.57 V 20.098"
         style="fill:none;stroke:#000000;stroke-width:0.454755;stroke-linecap:round;stroke-linejoin:round;stroke-miterlimit:10;stroke-dasharray:none;stroke-opacity:1"
         id="path160" />
      <path
         d="m 259.348,20.098 -2.743,5.492 2.743,-2.746 z"
         style="fill:#000000;fill-opacity:1;fill-rule:evenodd;stroke:#000000;stroke-width:0.454755;stroke-linecap:round;stroke-linejoin:round;stroke-miterlimit:10;stroke-dasharray:none;stroke-opacity:1"
         id="path162" />
      <path
         d="m 259.348,20.098 2.746,5.492 -2.746,-2.746 z"
         style="fill:#000000;fill-opacity:1;fill-rule:evenodd;stroke:#000000;stroke-width:0.454755;stroke-linecap:round;stroke-linejoin:round;stroke-miterlimit:10;stroke-dasharray:none;stroke-opacity:1"
         id="path164" />
      <path
         d="M 71.48,23.281 H 94.539"
         style="fill:none;stroke:#000000;stroke-width:0.454755;stroke-linecap:round;stroke-linejoin:round;stroke-miterlimit:10;stroke-dasharray:none;stroke-opacity:1"
         id="path166" />
      <path
         d="m 213.234,23.391 h 23.059"
         style="fill:none;stroke:#000000;stroke-width:0.454755;stroke-linecap:round;stroke-linejoin:round;stroke-miterlimit:10;stroke-dasharray:none;stroke-opacity:1"
         id="path168" />
      <path
         d="M 94.648,23.281 V 43.047"
         style="fill:none;stroke:#000000;stroke-width:0.454755;stroke-linecap:round;stroke-linejoin:round;stroke-miterlimit:10;stroke-dasharray:none;stroke-opacity:1"
         id="path170" />
      <path
         d="M 236.18,23.281 V 46.34"
         style="fill:none;stroke:#000000;stroke-width:0.454755;stroke-linecap:round;stroke-linejoin:round;stroke-miterlimit:10;stroke-dasharray:none;stroke-opacity:1"
         id="path172" />
      <path
         d="m 81.363,39.754 h 32.942 m 108.812,0.109 h 32.938"
         style="fill:none;stroke:#000000;stroke-width:0.1098;stroke-linecap:round;stroke-linejoin:round;stroke-miterlimit:10;stroke-dasharray:2.88, 2.88, 2.88, 2.88, 2.88, 2.88, 2.88, 2.88;stroke-dashoffset:0;stroke-opacity:1"
         id="path174" />
      <path
         d="m 111.008,13.512 v -1.539 l 0.113,-0.219 0.109,-0.109 v -0.11 l 0.11,-0.109 v -0.223 l 0.109,-0.109 v -0.219 l 0.11,-0.109 v -0.219 l 0.218,-0.219 v -0.113 l 0.11,-0.11 V 9.887 h 0.109 l 0.113,-0.11 V 9.668 l 0.547,-0.551 V 9.008 l 0.219,-0.219 h 0.109 V 8.68 l 0.223,-0.219 h 0.109 l 0.11,-0.109 h 0.109 l 0.219,-0.223 V 8.02 h 0.109 l 0.11,-0.11 h 0.222 l 0.219,-0.219 h 0.219 l 0.219,-0.218 h 0.109 l 0.109,-0.11 h 0.332 l 0.11,-0.113 h 0.109 l 0.109,-0.109 h 0.329 l 0.113,-0.11 h 0.988 l 0.11,-0.109 h 1.425 l 0.11,0.109 h 0.441 l 0.109,0.11 h 0.219 V 7.25 h 0.11 l 0.109,0.113 h 0.441 l 0.219,0.219 h 0.109 l 0.11,0.109 h 0.219 v 0.11 H 121 l 0.109,0.109 h 0.114 l 0.218,0.219 v 0.109 h 0.11 l 0.219,0.223 h 0.109 l 0.109,0.109 v 0.11 l 0.11,0.109 h 0.113 l 0.109,0.109 v 0.11 h 0.11 l 0.109,0.109 v 0.11 l 0.328,0.332 v 0.109 l 0.219,0.219 v 0.109 l 0.113,0.109 v 0.11 l 0.11,0.113 v 0.11 h 0.109 v 0.109 l 0.109,0.109 v 0.11 l 0.11,0.109 v 0.328 l 0.109,0.113 v 0.11 l 0.109,0.109 v 0.219 l 0.11,0.109 v 0.551 l 0.109,0.109 v 0.657 l 0.114,0.222 V 14.5 l -0.114,0.109 v 0.438 l -0.109,0.109 v 0.223 l -0.11,0.109 v 0.11 h -0.109 v 0.218 l -0.109,0.11 v 0.328 l -0.11,0.113 v 0.11 h -0.109 v 0.109 c -0.031,0.207 -0.16,0.398 -0.332,0.547 v 0.109 h -0.109 v 0.11 l -0.219,0.222 h -0.11 v 0.11 l -0.109,0.109 v 0.109 l -0.219,0.219 h -0.109 v 0.109 h -0.113 v 0.11 h -0.11 c -0.508,0.574 -0.285,0.152 -0.547,0.441 v 0.11 h -0.109 L 121.223,19 h -0.114 L 121,19.109 h -0.109 v 0.11 h -0.219 l -0.11,0.109 h -0.109 l -0.109,0.113 -0.223,0.11 h -0.219 l -0.109,0.109 h -0.109 l -0.11,0.11 h -0.219 l -0.109,0.109 h -0.223 l -0.109,0.109 h -1.098 l -0.109,0.11 H 116.5 l -0.109,-0.11 h -0.551 l -0.219,-0.218 h -0.219 l -0.109,-0.11 h -0.109 l -0.223,-0.109 h -0.109 l -0.11,-0.11 h -0.219 l -0.109,-0.113 h -0.109 v -0.109 h -0.219 L 113.863,19 h -0.109 v -0.109 l -0.219,-0.219 h -0.109 l -0.11,-0.11 h -0.109 v -0.109 l -0.332,-0.332 h -0.109 v -0.109 l -0.328,-0.328 v -0.11 l -0.329,-0.332 v -0.109 l -0.222,-0.219 v -0.219 l -0.11,-0.109 v -0.109 h -0.109 l -0.109,-0.11 v -0.222 l -0.11,-0.11 v -0.328 l -0.109,-0.109 v -0.11 l -0.11,-0.109 v -0.223 l -0.109,-0.109 V 14.609 L 111.008,14.5 Z"
         style="fill:none;stroke:#000000;stroke-width:0.454755;stroke-linecap:round;stroke-linejoin:round;stroke-miterlimit:10;stroke-dasharray:none;stroke-opacity:1"
         id="path176" />
      <path
         d="m 252.762,13.512 v -0.989 l 0.109,-0.222 v -0.328 l 0.109,-0.219 v -0.109 l 0.11,-0.11 v -0.109 l 0.109,-0.11 v -0.222 l 0.11,-0.11 v -0.218 l 0.113,-0.11 v -0.109 l 0.109,-0.109 v -0.11 l 0.11,-0.113 v -0.11 L 253.75,9.996 V 9.887 h 0.109 v -0.11 c 0.563,-0.496 0.317,-0.496 0.879,-0.988 h 0.11 V 8.68 l 0.218,-0.219 h 0.11 l 0.109,-0.109 h 0.113 V 8.238 l 0.219,-0.218 h 0.11 l 0.109,-0.11 h 0.109 l 0.11,-0.109 h 0.109 l 0.109,-0.11 h 0.223 V 7.582 l 0.109,-0.109 h 0.219 v -0.11 h 0.438 l 0.222,-0.222 h 0.438 l 0.109,-0.11 h 0.989 l 0.109,-0.109 h 1.43 l 0.109,0.109 h 0.437 l 0.11,0.11 h 0.109 l 0.114,0.109 h 0.109 l 0.109,0.113 h 0.328 l 0.11,0.11 h 0.109 l 0.109,0.109 h 0.11 l 0.113,0.109 h 0.11 l 0.109,0.11 h 0.109 l 0.11,0.109 h 0.109 v 0.11 h 0.109 v 0.109 l 0.11,0.109 h 0.109 l 0.551,0.551 h 0.109 v 0.109 h 0.11 v 0.11 h 0.109 c 0.242,0.308 0.16,0.461 0.551,0.769 v 0.11 h 0.109 v 0.109 l 0.11,0.109 v 0.223 l 0.218,0.219 v 0.109 l 0.11,0.11 v 0.109 l 0.113,0.109 v 0.219 l 0.109,0.113 v 0.219 l 0.11,0.11 v 0.218 l 0.109,0.11 v 1.097 l 0.11,0.11 v 1.429 l -0.11,0.219 v 0.438 l -0.109,0.113 v 0.109 l -0.11,0.11 v 0.218 l -0.109,0.11 v 0.219 l -0.113,0.109 v 0.113 l -0.11,0.11 v 0.109 l -0.109,0.109 c -0.031,0.207 -0.156,0.399 -0.328,0.547 l -0.11,0.11 v 0.113 l -0.109,0.109 h -0.109 v 0.11 l -0.332,0.328 v 0.109 h -0.11 l -0.109,0.109 v 0.11 h -0.109 c -0.629,0.683 -0.176,0.023 -0.661,0.551 h -0.109 V 19 h -0.109 l -0.11,0.109 h -0.109 l -0.109,0.11 h -0.11 l -0.113,0.109 h -0.11 l -0.109,0.113 h -0.109 l -0.11,0.11 h -0.218 l -0.11,0.109 h -0.109 l -0.109,0.11 h -0.223 l -0.219,0.109 h -0.109 l -0.11,0.109 h -0.441 c -0.18,0 -0.363,0 -0.547,0 h -0.109 l -0.11,0.11 h -1.211 l -0.109,-0.11 h -0.547 l -0.109,-0.109 h -0.11 l -0.113,-0.109 h -0.109 l -0.219,-0.11 h -0.109 l -0.11,-0.109 h -0.219 l -0.109,-0.11 h -0.109 l -0.114,-0.113 h -0.109 l -0.109,-0.109 h -0.11 L 255.727,19 h -0.11 v -0.109 h -0.109 l -0.11,-0.11 v -0.109 h -0.113 l -0.109,-0.11 h -0.11 l -0.218,-0.222 v -0.11 l -0.11,-0.109 h -0.109 v -0.109 l -0.219,-0.219 h -0.113 v -0.219 h -0.109 l -0.11,-0.109 v -0.113 l -0.219,-0.219 v -0.11 h -0.109 v -0.218 l -0.109,-0.11 v -0.109 l -0.219,-0.219 v -0.113 l -0.113,-0.109 v -0.329 l -0.11,-0.109 v -0.109 l -0.109,-0.11 v -0.222 l -0.11,-0.11 V 14.609 L 252.871,14.5 v -0.77 l -0.109,-0.109 z"
         style="fill:none;stroke:#000000;stroke-width:0.454755;stroke-linecap:round;stroke-linejoin:round;stroke-miterlimit:10;stroke-dasharray:none;stroke-opacity:1"
         id="path178" />
      <path
         d="m 64.895,66.105 h 16.468 m 125.282,0.11 h 16.472 M 81.363,39.754 V 66.105 M 223.117,39.863 v 26.352"
         style="fill:none;stroke:#000000;stroke-width:0.1098;stroke-linecap:round;stroke-linejoin:round;stroke-miterlimit:10;stroke-dasharray:2.88, 2.88, 2.88, 2.88, 2.88, 2.88, 2.88, 2.88;stroke-dashoffset:0;stroke-opacity:1"
         id="path180" />
      <path
         d="m 58.391,38.117 h -2 v 0.61 h 2 v 2.015 H 59 v -2.015 h 2 v -0.61 h -2 v -2.015 h -0.609 z"
         style="fill:#000000;fill-opacity:1;fill-rule:nonzero;stroke:none"
         id="path182" />
      <path
         d="m 200.137,38.227 h -2 v 0.609 h 2 v 2.016 h 0.609 v -2.016 h 2 v -0.609 h -2 v -2.016 h -0.609 z"
         style="fill:#000000;fill-opacity:1;fill-rule:nonzero;stroke:none"
         id="path184" />
      <path
         d="m 358.137,38.336 h -2 v 0.609 h 2 v 2.016 h 0.609 v -2.016 h 2 v -0.609 h -2 V 36.32 h -0.609 z"
         style="fill:#000000;fill-opacity:1;fill-rule:nonzero;stroke:none"
         id="path186" />
      <path
         d="m 123.637,23.504 h 4.941"
         style="fill:none;stroke:#000000;stroke-width:0.454755;stroke-linecap:round;stroke-linejoin:round;stroke-miterlimit:10;stroke-dasharray:none;stroke-opacity:1"
         id="path188" />
      <path
         d="m 69.395,37.887 h 4.941"
         style="fill:none;stroke:#000000;stroke-width:0.454755;stroke-linecap:round;stroke-linejoin:round;stroke-miterlimit:10;stroke-dasharray:none;stroke-opacity:1"
         id="path190" />
      <path
         d="m 266.375,23.504 h 4.941"
         style="fill:none;stroke:#000000;stroke-width:0.454755;stroke-linecap:round;stroke-linejoin:round;stroke-miterlimit:10;stroke-dasharray:none;stroke-opacity:1"
         id="path192" />
      <path
         d="m 210.488,38.215 h 4.5"
         style="fill:none;stroke:#000000;stroke-width:0.454755;stroke-linecap:round;stroke-linejoin:round;stroke-miterlimit:10;stroke-dasharray:none;stroke-opacity:1"
         id="path194" />
      <path
         d="m 371.234,38.105 h 4.395"
         style="fill:none;stroke:#000000;stroke-width:0.454755;stroke-linecap:round;stroke-linejoin:round;stroke-miterlimit:10;stroke-dasharray:none;stroke-opacity:1"
         id="path196" />
      <path
         d="m 124.297,13.512 h 13.066"
         style="fill:none;stroke:#000000;stroke-width:0.454755;stroke-linecap:round;stroke-linejoin:round;stroke-miterlimit:10;stroke-dasharray:none;stroke-opacity:1"
         id="path198" />
      <path
         d="m 266.156,13.512 h 12.957"
         style="fill:none;stroke:#000000;stroke-width:0.454755;stroke-linecap:round;stroke-linejoin:round;stroke-miterlimit:10;stroke-dasharray:none;stroke-opacity:1"
         id="path200" />
      <path
         d="m 106.703,5.727 h -2 v 0.609 h 2 v 2.016 h 0.609 V 6.336 h 2 V 5.727 h -2 V 3.711 h -0.609 z"
         style="fill:#000000;fill-opacity:1;fill-rule:nonzero;stroke:none"
         id="path202" />
      <path
         d="m 248.344,5.727 h -2 v 0.609 h 2 v 2.016 h 0.609 V 6.336 h 2 V 5.727 h -2 V 3.711 h -0.609 z"
         style="fill:#000000;fill-opacity:1;fill-rule:nonzero;stroke:none"
         id="path204" />
      <path
         d="m 93.113,46.121 v -0.437 h 0.11 v -0.223 l 0.218,-0.219 h 0.219 v -0.109 h 0.219 v -0.11 h 0.113 c 0.254,0 0.512,0 0.766,0 h 0.109 v 0.11 h 0.223 v 0.109 h 0.109 v 0.219 l 0.11,0.109 h 0.109 v 0.551 h 0.109 v 0.438 l -0.109,0.113 v 0.219 h -0.109 c -0.153,0.171 -0.34,0.297 -0.551,0.328 h -0.11 v 0.109 H 94.32 v 0.11 h -0.441 v -0.11 H 93.77 v -0.109 h -0.219 l -0.11,-0.11 V 47 H 93.332 V 46.781 H 93.223 V 46.34 l -0.11,-0.11 v -0.109"
         style="fill:#000000;fill-opacity:1;fill-rule:evenodd;stroke:none"
         id="path206" />
      <path
         d="m 93.113,46.121 v -0.437 h 0.11 v -0.223 l 0.218,-0.219 h 0.219 v -0.109 h 0.219 v -0.11 h 0.113 c 0.254,0 0.512,0 0.766,0 h 0.109 v 0.11 h 0.223 v 0.109 h 0.109 v 0.219 l 0.11,0.109 h 0.109 v 0.551 h 0.109 v 0.438 l -0.109,0.113 v 0.219 h -0.109 c -0.153,0.171 -0.34,0.297 -0.551,0.328 h -0.11 v 0.109 H 94.32 v 0.11 h -0.441 v -0.11 H 93.77 v -0.109 h -0.219 l -0.11,-0.11 V 47 H 93.332 V 46.781 H 93.223 V 46.34 l -0.11,-0.11 z"
         style="fill:none;stroke:#000000;stroke-width:0.454755;stroke-linecap:round;stroke-linejoin:round;stroke-miterlimit:10;stroke-dasharray:none;stroke-opacity:1"
         id="path208" />
      <path
         d="m 234.863,46.23 v -0.437 h 0.11 V 45.57 h 0.109 v -0.109 l 0.113,-0.109 h 0.219 v -0.11 h 0.219 v -0.109 h 0.328 v -0.11 h 0.551 v 0.11 h 0.109 v 0.109 h 0.219 l 0.219,0.219 v 0.223 h 0.109 v 0.437 h 0.113 v 0.66 h -0.113 v 0.11 L 237.059,47 v 0.109 h -0.11 v 0.11 h -0.219 l -0.109,0.109 h -0.109 l -0.11,0.11 h -0.879 v -0.11 h -0.109 l -0.109,-0.109 h -0.11 v -0.11 h -0.113 v -0.218 l -0.109,-0.11 V 46.34 h -0.11 v -0.11"
         style="fill:#000000;fill-opacity:1;fill-rule:evenodd;stroke:none"
         id="path210" />
      <path
         d="m 234.863,46.23 v -0.437 h 0.11 V 45.57 h 0.109 v -0.109 l 0.113,-0.109 h 0.219 v -0.11 h 0.219 v -0.109 h 0.328 v -0.11 h 0.551 v 0.11 h 0.109 v 0.109 h 0.219 l 0.219,0.219 v 0.223 h 0.109 v 0.437 h 0.113 v 0.66 h -0.113 v 0.11 L 237.059,47 v 0.109 h -0.11 v 0.11 h -0.219 l -0.109,0.109 h -0.109 l -0.11,0.11 h -0.879 v -0.11 h -0.109 l -0.109,-0.109 h -0.11 v -0.11 h -0.113 v -0.218 l -0.109,-0.11 V 46.34 h -0.11 z"
         style="fill:none;stroke:#000000;stroke-width:0.454755;stroke-linecap:round;stroke-linejoin:round;stroke-miterlimit:10;stroke-dasharray:none;stroke-opacity:1"
         id="path212" />
      <path
         d="M 93.441,85.977 V 85.43 h 0.11 v -0.219 h 0.109 v -0.109 h 0.219 l 0.113,-0.11 v -0.113 h 0.438 l 0.109,-0.109 h 0.551 v 0.109 h 0.219 l 0.109,0.113 v 0.11 h 0.109 v 0.218 h 0.11 v 0.219 l 0.109,0.109 v 0.219 h 0.109 v 0.551 h -0.109 v 0.109 h -0.109 v 0.219 h -0.11 v 0.109 h -0.109 v 0.11 h -0.219 l -0.109,0.113 h -0.332 l -0.11,0.11 h -0.546 v -0.11 h -0.11 L 93.879,86.965 H 93.77 v -0.11 l -0.11,-0.109 v -0.109 l -0.109,-0.11 v -0.109 l -0.11,-0.109 v -0.332"
         style="fill:#000000;fill-opacity:1;fill-rule:evenodd;stroke:none"
         id="path214" />
      <path
         d="M 93.441,85.977 V 85.43 h 0.11 v -0.219 h 0.109 v -0.109 h 0.219 l 0.113,-0.11 v -0.113 h 0.438 l 0.109,-0.109 h 0.551 v 0.109 h 0.219 l 0.109,0.113 v 0.11 h 0.109 v 0.218 h 0.11 v 0.219 l 0.109,0.109 v 0.219 h 0.109 v 0.551 h -0.109 v 0.109 h -0.109 v 0.219 h -0.11 v 0.109 h -0.109 v 0.11 h -0.219 l -0.109,0.113 h -0.332 l -0.11,0.11 h -0.546 v -0.11 h -0.11 L 93.879,86.965 H 93.77 v -0.11 l -0.11,-0.109 v -0.109 l -0.109,-0.11 v -0.109 l -0.11,-0.109 z"
         style="fill:none;stroke:#000000;stroke-width:0.454755;stroke-linecap:round;stroke-linejoin:round;stroke-miterlimit:10;stroke-dasharray:none;stroke-opacity:1"
         id="path216" />
      <path
         d="m 235.195,86.09 v -0.442 l 0.11,-0.109 V 85.32 h 0.109 v -0.109 h 0.109 v -0.109 h 0.219 l 0.11,-0.11 h 0.328 l 0.113,-0.113 h 0.547 l 0.109,0.113 h 0.11 l 0.109,0.11 h 0.113 v 0.218 l 0.219,0.219 v 0.328 l 0.109,0.11 c 0,0.183 0,0.367 0,0.55 l -0.109,0.11 v 0.109 h -0.109 v 0.109 h -0.11 v 0.11 h -0.222 v 0.113 h -0.11 v 0.11 h -0.437 v 0.109 h -0.551 l -0.109,-0.109 h -0.11 l -0.109,-0.11 v -0.113 h -0.11 l -0.109,-0.11 v -0.218 h -0.109 v -0.438 h -0.11 V 86.09"
         style="fill:#000000;fill-opacity:1;fill-rule:evenodd;stroke:none"
         id="path218" />
      <path
         d="m 235.195,86.09 v -0.442 l 0.11,-0.109 V 85.32 h 0.109 v -0.109 h 0.109 v -0.109 h 0.219 l 0.11,-0.11 h 0.328 l 0.113,-0.113 h 0.547 l 0.109,0.113 h 0.11 l 0.109,0.11 h 0.113 v 0.218 l 0.219,0.219 v 0.328 l 0.109,0.11 c 0,0.183 0,0.367 0,0.55 l -0.109,0.11 v 0.109 h -0.109 v 0.109 h -0.11 v 0.11 h -0.222 v 0.113 h -0.11 v 0.11 h -0.437 v 0.109 h -0.551 l -0.109,-0.109 h -0.11 l -0.109,-0.11 v -0.113 h -0.11 l -0.109,-0.11 v -0.218 h -0.109 v -0.438 h -0.11 z"
         style="fill:none;stroke:#000000;stroke-width:0.454755;stroke-linecap:round;stroke-linejoin:round;stroke-miterlimit:10;stroke-dasharray:none;stroke-opacity:1"
         id="path220" />
      <path
         d="M 56.988,13.512 V 13.18 h 0.11 v -0.11 l 0.109,-0.109 v -0.219 h 0.109 v -0.109 h 0.219 l 0.113,-0.11 h 0.11 l 0.109,-0.109 h 0.219 l 0.109,-0.113 h 0.442 v 0.113 h 0.109 l 0.109,0.109 h 0.11 l 0.109,0.11 h 0.11 v 0.219 l 0.109,0.109 v 0.219 h 0.109 v 0.879 l -0.109,0.109 v 0.109 h -0.109 v 0.114 l -0.11,0.109 h -0.219 v 0.109 h -0.218 v 0.11 h -0.332 v 0.109 h -0.11 c -0.433,-0.019 -0.218,0.11 -0.547,-0.219 H 57.535 V 14.5 h -0.109 l -0.11,-0.109 v -0.114 l -0.109,-0.109 v -0.219 h -0.109 v -0.328 h -0.11 v -0.109"
         style="fill:#000000;fill-opacity:1;fill-rule:evenodd;stroke:none"
         id="path222" />
      <path
         d="M 56.988,13.512 V 13.18 h 0.11 v -0.11 l 0.109,-0.109 v -0.219 h 0.109 v -0.109 h 0.219 l 0.113,-0.11 h 0.11 l 0.109,-0.109 h 0.219 l 0.109,-0.113 h 0.442 v 0.113 h 0.109 l 0.109,0.109 h 0.11 l 0.109,0.11 h 0.11 v 0.219 l 0.109,0.109 v 0.219 h 0.109 v 0.879 l -0.109,0.109 v 0.109 h -0.109 v 0.114 l -0.11,0.109 h -0.219 v 0.109 h -0.218 v 0.11 h -0.332 v 0.109 h -0.11 c -0.433,-0.019 -0.218,0.11 -0.547,-0.219 H 57.535 V 14.5 h -0.109 l -0.11,-0.109 v -0.114 l -0.109,-0.109 v -0.219 h -0.109 v -0.328 h -0.11 z"
         style="fill:none;stroke:#000000;stroke-width:0.454755;stroke-linecap:round;stroke-linejoin:round;stroke-miterlimit:10;stroke-dasharray:none;stroke-opacity:1"
         id="path224" />
      <path
         d="M 198.852,13.621 V 13.18 l 0.109,-0.11 v -0.218 h 0.109 l 0.11,-0.11 h 0.109 l 0.109,-0.109 h 0.219 v -0.11 h 0.332 v -0.109 h 0.438 l 0.218,0.219 h 0.219 v 0.109 h 0.114 v 0.219 h 0.109 v 0.219 l 0.109,0.109 v 0.223 l 0.11,0.109 v 0.438 h -0.11 v 0.109 l -0.109,0.109 v 0.114 l -0.109,0.109 h -0.114 v 0.109 h -0.219 v 0.11 h -0.218 v 0.109 h -0.879 l -0.11,-0.109 h -0.109 v -0.11 H 199.18 V 14.5 h -0.11 v -0.223 h -0.109 v -0.218 l -0.109,-0.11 v -0.328"
         style="fill:#000000;fill-opacity:1;fill-rule:evenodd;stroke:none"
         id="path226" />
      <path
         d="M 198.852,13.621 V 13.18 l 0.109,-0.11 v -0.218 h 0.109 l 0.11,-0.11 h 0.109 l 0.109,-0.109 h 0.219 v -0.11 h 0.332 v -0.109 h 0.438 l 0.218,0.219 h 0.219 v 0.109 h 0.114 v 0.219 h 0.109 v 0.219 l 0.109,0.109 v 0.223 l 0.11,0.109 v 0.438 h -0.11 v 0.109 l -0.109,0.109 v 0.114 l -0.109,0.109 h -0.114 v 0.109 h -0.219 v 0.11 h -0.218 v 0.109 h -0.879 l -0.11,-0.109 h -0.109 v -0.11 H 199.18 V 14.5 h -0.11 v -0.223 h -0.109 v -0.218 l -0.109,-0.11 z"
         style="fill:none;stroke:#000000;stroke-width:0.454755;stroke-linecap:round;stroke-linejoin:round;stroke-miterlimit:10;stroke-dasharray:none;stroke-opacity:1"
         id="path228" />
      <path
         d="m 298.77,13.402 h 26.351"
         style="fill:none;stroke:#000000;stroke-width:0.1098;stroke-linecap:round;stroke-linejoin:round;stroke-miterlimit:10;stroke-dasharray:2.88, 2.88, 2.88, 2.88, 2.88, 2.88, 2.88, 2.88;stroke-dashoffset:0;stroke-opacity:1"
         id="path230" />
      <path
         d="m 351.473,13.402 h 6.586"
         style="fill:none;stroke:#000000;stroke-width:0.454755;stroke-linecap:round;stroke-linejoin:round;stroke-miterlimit:10;stroke-dasharray:none;stroke-opacity:1"
         id="path232" />
      <path
         d="M 374.531,33.164 V 23.723"
         style="fill:none;stroke:#000000;stroke-width:0.454755;stroke-linecap:round;stroke-linejoin:round;stroke-miterlimit:10;stroke-dasharray:none;stroke-opacity:1"
         id="path234" />
      <path
         d="m 56.113,114.43 c -1.562,0.922 -2.484,2.437 -2.484,4.156 0,1.391 0.328,2.125 0.828,2.844 0.375,0.562 1.047,1.265 1.625,1.578 l 0.125,-0.156 c -1.719,-1.11 -1.719,-3.313 -1.719,-4.329 0,-2.562 0.969,-3.343 1.719,-3.937 z"
         style="fill:#000000;fill-opacity:1;fill-rule:nonzero;stroke:none"
         id="path236" />
      <path
         d="m 65.234,114.57 h -2 L 61,119.648 58.688,114.57 h -2 v 0.188 c 0.75,0.031 0.953,0.125 0.953,0.906 v 4.078 c 0,1.094 -0.203,1.25 -0.969,1.297 v 0.188 h 2.359 v -0.188 c -0.734,-0.031 -0.937,-0.25 -0.937,-1.297 v -4.015 h 0.015 l 2.5,5.5 h 0.141 l 2.562,-5.719 h 0.016 v 4.515 c 0,0.829 -0.125,0.969 -0.922,1.016 v 0.188 h 2.828 v -0.188 c -0.64,-0.047 -0.875,-0.141 -0.875,-0.906 v -4.469 c 0,-0.797 0.235,-0.859 0.875,-0.906 z"
         style="fill:#000000;fill-opacity:1;fill-rule:nonzero;stroke:none"
         id="path238" />
      <path
         d="m 70.16,114.43 h -0.219 c -0.015,0.109 -0.062,0.343 -0.343,0.343 -0.25,0 -0.797,-0.343 -1.407,-0.343 -0.906,0 -1.812,0.562 -1.812,1.703 0,1 0.641,1.437 1.562,1.969 1.485,0.875 1.641,1.218 1.641,1.781 0,0.547 -0.406,1.125 -1.203,1.125 -1.359,0 -1.875,-1.313 -2.063,-1.781 h -0.234 l 0.297,2.125 h 0.234 c 0,-0.157 0.094,-0.329 0.297,-0.329 0.313,0 0.797,0.344 1.563,0.344 1.437,0 2.125,-0.969 2.125,-1.828 0,-2.062 -3.36,-2.25 -3.36,-3.766 0,-0.625 0.516,-0.937 1.016,-0.937 1.062,0 1.703,0.906 1.875,1.734 h 0.25 z"
         style="fill:#000000;fill-opacity:1;fill-rule:nonzero;stroke:none"
         id="path240" />
      <path
         d="m 71.539,114.758 c 0.828,0.031 0.969,0.156 0.969,0.906 v 4.469 c 0,0.719 -0.125,0.875 -0.969,0.906 v 0.188 h 3.359 c 2.235,0 2.438,-1.391 2.438,-1.766 0,-1.063 -0.813,-1.547 -1.688,-1.719 v -0.031 c 0.454,-0.109 1.344,-0.328 1.344,-1.438 0,-1.562 -1.765,-1.703 -2.64,-1.703 h -2.813 z m 1.984,3.187 c 0.969,0 1.297,0.047 1.641,0.157 0.516,0.156 1.016,0.484 1.016,1.312 0,1.344 -1.219,1.438 -1.891,1.438 -0.578,0 -0.766,-0.032 -0.766,-0.407 z m 0,-2.703 c 0,-0.156 0.032,-0.297 0.235,-0.297 0.094,0 0.234,0 0.453,0 0.703,0 1.75,0.188 1.75,1.375 0,1.203 -1.188,1.219 -1.469,1.219 l -0.969,0.016 z"
         style="fill:#000000;fill-opacity:1;fill-rule:nonzero;stroke:none"
         id="path242" />
      <path
         d="m 78.547,123.008 c 1.562,-0.922 2.5,-2.438 2.5,-4.172 0,-1.375 -0.344,-2.109 -0.828,-2.828 -0.391,-0.563 -1.047,-1.266 -1.641,-1.578 l -0.109,0.156 c 1.703,1.094 1.703,3.297 1.703,4.328 0,2.547 -0.969,3.344 -1.703,3.938 z"
         style="fill:#000000;fill-opacity:1;fill-rule:nonzero;stroke:none"
         id="path244" />
      <path
         d="m 357.293,114.336 c -1.734,1.031 -2.766,2.703 -2.766,4.625 0,1.531 0.375,2.344 0.922,3.141 0.422,0.625 1.156,1.406 1.797,1.75 l 0.141,-0.172 c -1.891,-1.219 -1.891,-3.657 -1.891,-4.797 0,-2.828 1.063,-3.703 1.891,-4.36 z"
         style="fill:#000000;fill-opacity:1;fill-rule:nonzero;stroke:none"
         id="path246" />
      <path
         d="m 360.461,114.492 h -3.141 v 0.219 c 0.703,0.047 0.969,0.125 0.969,1 v 4.953 c 0,0.859 -0.266,0.969 -0.969,1 v 0.219 h 6 l 0.532,-1.938 h -0.282 c -0.64,1.453 -1.343,1.5 -3.015,1.5 -0.938,0 -1.125,-0.015 -1.125,-0.453 v -5.281 c 0,-0.875 0.265,-0.953 1.031,-1 z"
         style="fill:#000000;fill-opacity:1;fill-rule:nonzero;stroke:none"
         id="path248" />
      <path
         d="m 368.203,114.336 h -0.234 c -0.016,0.125 -0.078,0.391 -0.391,0.391 -0.281,0 -0.875,-0.391 -1.547,-0.391 -1,0 -2.015,0.625 -2.015,1.906 0,1.094 0.703,1.594 1.734,2.188 1.641,0.953 1.812,1.328 1.812,1.968 0,0.61 -0.437,1.235 -1.328,1.235 -1.515,0 -2.078,-1.453 -2.296,-1.969 h -0.25 l 0.328,2.359 h 0.25 c 0,-0.171 0.109,-0.359 0.343,-0.359 0.344,0 0.891,0.375 1.735,0.375 1.594,0 2.359,-1.078 2.359,-2.016 0,-2.296 -3.734,-2.515 -3.734,-4.187 0,-0.688 0.578,-1.031 1.125,-1.031 1.172,0 1.89,1 2.078,1.906 h 0.281 z"
         style="fill:#000000;fill-opacity:1;fill-rule:nonzero;stroke:none"
         id="path250" />
      <path
         d="m 369,114.711 c 0.922,0.047 1.078,0.172 1.078,1 v 4.953 c 0,0.797 -0.14,0.984 -1.078,1 v 0.219 h 3.734 c 2.469,0 2.688,-1.547 2.688,-1.969 0,-1.172 -0.891,-1.703 -1.86,-1.906 v -0.016 c 0.5,-0.125 1.485,-0.375 1.485,-1.609 0,-1.735 -1.953,-1.891 -2.922,-1.891 H 369 Z m 2.219,3.531 c 1.062,0 1.422,0.063 1.797,0.172 0.578,0.172 1.125,0.547 1.125,1.453 0,1.5 -1.344,1.61 -2.079,1.61 -0.656,0 -0.843,-0.047 -0.843,-0.469 z m 0,-3 c 0,-0.172 0.015,-0.328 0.234,-0.328 0.109,0 0.266,0 0.5,0 0.797,0 1.953,0.203 1.953,1.531 0,1.328 -1.328,1.36 -1.64,1.36 h -1.047 z"
         style="fill:#000000;fill-opacity:1;fill-rule:nonzero;stroke:none"
         id="path252" />
      <path
         d="m 376.156,123.852 c 1.735,-1.016 2.75,-2.688 2.75,-4.61 0,-1.547 -0.359,-2.344 -0.906,-3.156 -0.422,-0.625 -1.156,-1.406 -1.812,-1.75 l -0.126,0.187 c 1.891,1.219 1.891,3.657 1.891,4.797 0,2.828 -1.062,3.703 -1.891,4.36 z"
         style="fill:#000000;fill-opacity:1;fill-rule:nonzero;stroke:none"
         id="path254" />
      <path
         d="M 279.004,0.227 V 26.578"
         style="fill:none;stroke:#000000;stroke-width:0.454755;stroke-linecap:round;stroke-linejoin:round;stroke-miterlimit:10;stroke-dasharray:none;stroke-opacity:1"
         id="path256" />
      <path
         d="m 341.809,23.723 c 0.093,0 0.171,0 0.25,0 0.5,0 0.531,0.218 0.671,1 0.094,0.593 0.235,2.218 0.235,2.937 0,0.172 0,0.313 0.078,0.313 0.156,0 0.344,-0.203 1,-0.922 0.328,-0.36 1.828,-2.141 1.828,-3.063 0,-0.375 -0.234,-0.64 -0.562,-0.64 -0.204,0 -0.375,0.14 -0.375,0.297 0,0.531 0.421,0.421 0.421,0.812 0,0.516 -0.796,1.703 -1.375,2.297 l -0.312,0.328 c -0.063,-1.375 -0.125,-2.203 -0.422,-3.531 -0.062,-0.188 -0.062,-0.203 -0.141,-0.203 h -0.031 c -0.047,0 -0.531,0.14 -1.265,0.25 z"
         style="fill:#000000;fill-opacity:1;fill-rule:nonzero;stroke:none"
         id="path258" />
      <path
         d="m 349.062,26.992 c 0,0.75 -0.578,1.953 -1.359,1.953 -0.156,0 -0.312,-0.078 -0.312,-0.234 0,-0.25 0.25,-1.125 0.421,-1.531 0.157,-0.438 0.532,-0.735 0.829,-0.735 0.421,0 0.421,0.375 0.421,0.547 z M 347,26.414 l 0.141,-0.016 h 0.031 c 0.125,0 0.25,0.079 0.25,0.188 0,0.141 -0.656,2.516 -0.828,3.234 -0.063,0.203 -0.094,0.375 -0.438,0.375 v 0.11 h 1.313 v -0.094 c -0.157,0 -0.407,0 -0.407,-0.203 0,-0.125 0.188,-0.844 0.235,-1.047 0.156,0.062 0.281,0.109 0.437,0.109 0.891,0 1.907,-1.078 1.907,-2.062 0,-0.469 -0.188,-0.844 -0.75,-0.844 -0.532,0 -0.891,0.469 -1.047,0.688 h -0.016 L 348,26.258 c 0,-0.031 0.016,-0.047 0.016,-0.063 0,-0.015 -0.016,-0.031 -0.032,-0.031 l -1,0.141 z"
         style="fill:#000000;fill-opacity:1;fill-rule:nonzero;stroke:none"
         id="path260" />
      <path
         d="m 350.809,26.883 c 0.437,-0.016 0.593,0.015 0.828,0.14 0.406,0.204 0.484,0.688 0.484,0.844 0,0.485 -0.266,0.985 -0.859,0.985 -0.375,0 -0.625,-0.36 -0.907,-0.36 -0.109,0 -0.25,0.047 -0.25,0.219 0,0.344 0.547,0.375 0.704,0.375 1.015,0 1.781,-0.563 1.781,-1.484 0,-0.844 -0.547,-1.063 -0.813,-1.172 0.422,-0.282 0.594,-0.563 0.594,-0.907 0,-0.265 -0.172,-0.859 -1,-0.859 -0.437,0 -1,0.203 -1.266,1.031 l 0.11,0.032 c 0.094,-0.188 0.359,-0.688 0.937,-0.688 0.485,0 0.703,0.344 0.703,0.672 0,0.594 -0.468,0.891 -1.062,1.078 z"
         style="fill:#000000;fill-opacity:1;fill-rule:nonzero;stroke:none"
         id="path262" />
      <path
         d="m 119.52,16.805 h -5.469 v -0.2 l 2.804,-3.363 -2.804,-3.523 V 9.523 h 5.304 l 0.165,1.813 h -0.219 c -0.055,-0.492 -0.192,-0.844 -0.41,-1.055 -0.223,-0.211 -0.539,-0.316 -0.953,-0.316 h -2.504 l 2.3,2.89 -2.586,3.106 h 2.84 c 0.477,0 0.832,-0.09 1.071,-0.27 0.238,-0.179 0.433,-0.515 0.593,-1.007 l 0.196,0.054 z"
         style="fill:#000000;fill-opacity:1;fill-rule:nonzero;stroke:none"
         id="path264" />
      <path
         d="m 139.066,11.297 1.825,1.824 1.832,-1.824 0.347,0.34 -1.836,1.828 1.821,1.824 -0.332,0.336 -1.821,-1.828 -1.836,1.828 -0.343,-0.348 1.836,-1.824 -1.825,-1.824 z"
         style="fill:#000000;fill-opacity:1;fill-rule:nonzero;stroke:none"
         id="path266" />
      <path
         d="m 151.035,14.66 -0.125,-0.047 c -0.406,0.625 -0.594,0.657 -0.969,0.657 h -2.406 l 1.703,-1.766 c 0.438,-0.484 1.282,-1.391 1.282,-2.453 0,-1.141 -0.907,-1.813 -1.829,-1.813 -0.875,0 -1.828,0.485 -2.125,2 l 0.204,0.047 c 0.234,-0.547 0.531,-1.312 1.453,-1.312 1.187,0 1.437,0.937 1.437,1.437 0,0.766 -0.437,1.672 -1.312,2.61 l -1.797,1.89 v 0.125 h 3.922 z"
         style="fill:#000000;fill-opacity:1;fill-rule:nonzero;stroke:none"
         id="path268" />
      <path
         d="m 114.641,57.227 h -1.875 v 0.171 c 0.203,0.016 0.64,0.063 0.64,0.344 0,0.281 -0.437,1.031 -0.531,1.188 l -2.031,3.515 h -0.047 l -0.656,-4.39 c 0,-0.063 0,-0.11 0,-0.157 0,-0.406 0.297,-0.453 0.765,-0.5 v -0.171 h -2.422 v 0.171 c 0.563,0.063 0.594,0.125 0.797,1.36 l 0.86,5.234 h 0.187 l 3.75,-6.187 c 0.063,-0.11 0.25,-0.407 0.563,-0.407 z"
         style="fill:#000000;fill-opacity:1;fill-rule:nonzero;stroke:none"
         id="path270" />
      <path
         d="m 118.148,64.898 c -0.343,0 -0.437,-0.234 -0.531,-0.453 l -0.594,-1.578 c 0.922,-0.172 1.266,-0.609 1.266,-1.125 0,-0.922 -1.094,-0.922 -1.328,-0.922 h -1.594 v 0.11 c 0.297,0.031 0.453,0.047 0.453,0.297 0,0.078 -0.047,0.296 -0.078,0.375 l -0.781,2.828 c -0.109,0.406 -0.188,0.422 -0.516,0.468 v 0.11 h 1.563 v -0.11 c -0.344,-0.031 -0.438,-0.046 -0.438,-0.296 0,-0.047 0,-0.079 0.078,-0.36 l 0.36,-1.344 0.406,0.032 0.797,2.078 h 0.937 z m -1.656,-3.703 c 0.047,-0.109 0.078,-0.172 0.36,-0.172 0.375,0 0.765,0.141 0.765,0.688 0,0.484 -0.234,0.984 -1.156,0.984 -0.172,0 -0.234,0 -0.375,-0.031 z"
         style="fill:#000000;fill-opacity:1;fill-rule:nonzero;stroke:none"
         id="path272" />
      <path
         d="m 122.43,60.82 h -3.188 v 0.11 c 0.328,0.015 0.5,0.062 0.5,0.281 0,0.062 -0.062,0.328 -0.078,0.391 l -0.781,2.828 c -0.11,0.406 -0.203,0.422 -0.516,0.468 v 0.11 h 3.235 l 0.406,-1.031 -0.11,-0.063 c -0.453,0.641 -0.718,0.875 -1.968,0.875 -0.157,0 -0.438,-0.016 -0.438,-0.203 0,-0.078 0.031,-0.203 0.438,-1.672 1.047,0.031 1.047,0.031 1.047,0.344 0,0.094 -0.016,0.203 -0.047,0.297 l 0.125,0.031 0.437,-1.484 -0.109,-0.032 c -0.063,0.141 -0.125,0.266 -0.188,0.36 -0.14,0.187 -0.172,0.25 -1.203,0.265 l 0.422,-1.5 c 0.031,-0.125 0.047,-0.156 0.516,-0.156 1,0 1.172,0.094 1.172,0.484 0,0.079 0,0.172 0,0.266 l 0.125,0.016 z"
         style="fill:#000000;fill-opacity:1;fill-rule:nonzero;stroke:none"
         id="path274" />
      <path
         d="m 126.336,60.82 h -3.188 v 0.11 c 0.344,0.015 0.5,0.031 0.5,0.265 0,0.125 -0.046,0.313 -0.078,0.407 l -0.781,2.828 c -0.109,0.406 -0.203,0.422 -0.531,0.468 v 0.11 h 1.625 v -0.11 c -0.219,0 -0.5,-0.015 -0.5,-0.281 0,-0.062 0.031,-0.14 0.062,-0.281 l 0.407,-1.422 c 0.109,0 0.375,0.016 0.687,0.016 0.109,0 0.313,0.015 0.313,0.297 0,0.14 -0.032,0.281 -0.047,0.375 l 0.109,0.031 0.484,-1.5 -0.109,-0.031 c -0.297,0.578 -0.312,0.578 -1.391,0.593 l 0.422,-1.5 c 0.047,-0.14 0.125,-0.156 0.532,-0.156 0.937,0 1.171,0.078 1.171,0.484 0,0.094 -0.015,0.172 -0.015,0.266 l 0.125,0.016 z"
         style="fill:#000000;fill-opacity:1;fill-rule:nonzero;stroke:none"
         id="path276" />
      <path
         d="m 119.414,74.613 -0.125,-0.047 c -0.406,0.625 -0.594,0.657 -0.969,0.657 h -2.406 l 1.703,-1.766 c 0.438,-0.484 1.281,-1.391 1.281,-2.453 0,-1.141 -0.906,-1.813 -1.828,-1.813 -0.875,0 -1.828,0.485 -2.125,2 l 0.203,0.047 c 0.235,-0.547 0.532,-1.312 1.454,-1.312 1.187,0 1.437,0.937 1.437,1.437 0,0.766 -0.437,1.672 -1.312,2.61 l -1.797,1.89 v 0.125 h 3.922 z"
         style="fill:#000000;fill-opacity:1;fill-rule:nonzero;stroke:none"
         id="path278" />
      <path
         d="m 107.715,66.543 h 18.777"
         style="fill:none;stroke:#000000;stroke-width:0.59109;stroke-linecap:round;stroke-linejoin:round;stroke-miterlimit:10;stroke-dasharray:none;stroke-opacity:1"
         id="path280" />
      <path
         d="M 257.375,55.902 H 255.5 v 0.172 c 0.203,0.016 0.641,0.063 0.641,0.344 0,0.281 -0.438,1.031 -0.532,1.187 l -2.031,3.516 h -0.047 l -0.656,-4.391 c 0,-0.062 0,-0.109 0,-0.156 0,-0.406 0.297,-0.453 0.766,-0.5 v -0.172 h -2.422 v 0.172 c 0.562,0.063 0.593,0.125 0.797,1.36 l 0.859,5.234 h 0.187 l 3.75,-6.188 c 0.063,-0.109 0.25,-0.406 0.563,-0.406 z"
         style="fill:#000000;fill-opacity:1;fill-rule:nonzero;stroke:none"
         id="path282" />
      <path
         d="m 260.887,63.582 c -0.344,0 -0.438,-0.234 -0.532,-0.453 l -0.593,-1.578 c 0.922,-0.172 1.265,-0.61 1.265,-1.125 0,-0.922 -1.093,-0.922 -1.328,-0.922 h -1.594 v 0.109 c 0.297,0.032 0.454,0.047 0.454,0.297 0,0.078 -0.047,0.297 -0.079,0.375 l -0.781,2.828 c -0.109,0.407 -0.187,0.422 -0.515,0.469 v 0.109 h 1.562 v -0.109 c -0.344,-0.031 -0.437,-0.047 -0.437,-0.297 0,-0.047 0,-0.078 0.078,-0.359 l 0.359,-1.344 0.406,0.031 0.797,2.078 h 0.938 z m -1.657,-3.703 c 0.047,-0.109 0.079,-0.172 0.36,-0.172 0.375,0 0.765,0.141 0.765,0.688 0,0.484 -0.234,0.984 -1.156,0.984 -0.172,0 -0.234,0 -0.375,-0.031 z"
         style="fill:#000000;fill-opacity:1;fill-rule:nonzero;stroke:none"
         id="path284" />
      <path
         d="m 265.168,59.504 h -3.188 v 0.109 c 0.329,0.016 0.5,0.063 0.5,0.282 0,0.062 -0.062,0.328 -0.078,0.39 l -0.781,2.828 c -0.109,0.407 -0.203,0.422 -0.516,0.469 v 0.109 h 3.235 l 0.406,-1.031 -0.109,-0.062 c -0.453,0.64 -0.719,0.875 -1.969,0.875 -0.156,0 -0.438,-0.016 -0.438,-0.203 0,-0.079 0.032,-0.204 0.438,-1.672 1.047,0.031 1.047,0.031 1.047,0.343 0,0.094 -0.016,0.204 -0.047,0.297 l 0.125,0.032 0.437,-1.485 -0.109,-0.031 c -0.062,0.141 -0.125,0.266 -0.187,0.359 -0.141,0.188 -0.172,0.25 -1.204,0.266 l 0.422,-1.5 c 0.032,-0.125 0.047,-0.156 0.516,-0.156 1,0 1.172,0.093 1.172,0.484 0,0.078 0,0.172 0,0.266 l 0.125,0.015 z"
         style="fill:#000000;fill-opacity:1;fill-rule:nonzero;stroke:none"
         id="path286" />
      <path
         d="m 269.074,59.504 h -3.187 v 0.109 c 0.343,0.016 0.5,0.032 0.5,0.266 0,0.125 -0.047,0.312 -0.078,0.406 l -0.782,2.828 c -0.109,0.407 -0.203,0.422 -0.531,0.469 v 0.109 h 1.625 v -0.109 c -0.219,0 -0.5,-0.016 -0.5,-0.281 0,-0.063 0.031,-0.141 0.063,-0.281 l 0.406,-1.422 c 0.109,0 0.375,0.015 0.687,0.015 0.11,0 0.313,0.016 0.313,0.297 0,0.141 -0.031,0.281 -0.047,0.375 l 0.109,0.031 0.485,-1.5 -0.11,-0.031 c -0.297,0.578 -0.312,0.578 -1.39,0.594 l 0.422,-1.5 c 0.046,-0.141 0.125,-0.156 0.531,-0.156 0.937,0 1.172,0.078 1.172,0.484 0,0.094 -0.016,0.172 -0.016,0.266 l 0.125,0.015 z"
         style="fill:#000000;fill-opacity:1;fill-rule:nonzero;stroke:none"
         id="path288" />
      <path
         d="m 262.152,73.293 -0.125,-0.047 c -0.406,0.625 -0.593,0.656 -0.968,0.656 h -2.407 l 1.703,-1.765 c 0.438,-0.485 1.282,-1.391 1.282,-2.453 0,-1.141 -0.907,-1.813 -1.828,-1.813 -0.875,0 -1.829,0.484 -2.125,2 l 0.203,0.047 c 0.234,-0.547 0.531,-1.313 1.453,-1.313 1.187,0 1.437,0.938 1.437,1.438 0,0.766 -0.437,1.672 -1.312,2.609 l -1.797,1.891 v 0.125 h 3.922 z"
         style="fill:#000000;fill-opacity:1;fill-rule:nonzero;stroke:none"
         id="path290" />
      <path
         d="M 250.457,65.227 H 269.23"
         style="fill:none;stroke:#000000;stroke-width:0.59109;stroke-linecap:round;stroke-linejoin:round;stroke-miterlimit:10;stroke-dasharray:none;stroke-opacity:1"
         id="path292" />
      <path
         d="m 372.117,2.32 h -1.875 v 0.172 c 0.203,0.016 0.641,0.063 0.641,0.344 0,0.281 -0.438,1.031 -0.531,1.187 l -2.032,3.516 h -0.047 l -0.656,-4.391 c 0,-0.062 0,-0.109 0,-0.156 0,-0.406 0.297,-0.453 0.766,-0.5 V 2.32 h -2.422 v 0.172 c 0.562,0.063 0.594,0.125 0.797,1.36 l 0.859,5.234 h 0.188 l 3.75,-6.188 c 0.062,-0.109 0.25,-0.406 0.562,-0.406 z"
         style="fill:#000000;fill-opacity:1;fill-rule:nonzero;stroke:none"
         id="path294" />
      <path
         d="m 375.52,10 c -0.344,0 -0.438,-0.234 -0.532,-0.453 l -0.593,-1.578 c 0.921,-0.172 1.265,-0.61 1.265,-1.125 0,-0.922 -1.094,-0.922 -1.328,-0.922 h -1.594 v 0.109 c 0.297,0.031 0.453,0.047 0.453,0.297 0,0.078 -0.046,0.297 -0.078,0.375 l -0.781,2.828 c -0.109,0.407 -0.187,0.422 -0.516,0.469 v 0.109 h 1.563 V 10 c -0.344,-0.031 -0.438,-0.047 -0.438,-0.297 0,-0.047 0,-0.078 0.079,-0.359 L 373.379,8 l 0.406,0.031 0.797,2.078 h 0.938 z m -1.657,-3.703 c 0.047,-0.109 0.078,-0.172 0.36,-0.172 0.375,0 0.765,0.141 0.765,0.687 0,0.485 -0.234,0.985 -1.156,0.985 -0.172,0 -0.234,0 -0.375,-0.031 z"
         style="fill:#000000;fill-opacity:1;fill-rule:nonzero;stroke:none"
         id="path296" />
      <path
         d="m 379.801,5.922 h -3.188 v 0.109 c 0.328,0.016 0.5,0.063 0.5,0.281 0,0.063 -0.062,0.329 -0.078,0.391 l -0.781,2.828 c -0.109,0.407 -0.203,0.422 -0.516,0.469 v 0.109 h 3.235 l 0.406,-1.031 -0.109,-0.062 c -0.454,0.64 -0.719,0.875 -1.969,0.875 -0.156,0 -0.438,-0.016 -0.438,-0.203 0,-0.079 0.032,-0.204 0.438,-1.672 1.047,0.031 1.047,0.031 1.047,0.343 0,0.094 -0.016,0.203 -0.047,0.297 l 0.125,0.032 0.437,-1.485 -0.109,-0.031 c -0.063,0.14 -0.125,0.266 -0.188,0.359 -0.14,0.188 -0.171,0.25 -1.203,0.266 l 0.422,-1.5 c 0.031,-0.125 0.047,-0.156 0.516,-0.156 1,0 1.172,0.093 1.172,0.484 0,0.078 0,0.172 0,0.266 l 0.125,0.015 z"
         style="fill:#000000;fill-opacity:1;fill-rule:nonzero;stroke:none"
         id="path298" />
      <path
         d="m 383.707,5.922 h -3.187 v 0.109 c 0.343,0.016 0.5,0.031 0.5,0.266 0,0.125 -0.047,0.312 -0.079,0.406 l -0.781,2.828 c -0.109,0.407 -0.203,0.422 -0.531,0.469 v 0.109 h 1.625 V 10 c -0.219,0 -0.5,-0.016 -0.5,-0.281 0,-0.063 0.031,-0.141 0.062,-0.281 l 0.407,-1.422 c 0.109,0 0.375,0.015 0.687,0.015 0.11,0 0.313,0.016 0.313,0.297 0,0.141 -0.032,0.281 -0.047,0.375 l 0.109,0.031 0.485,-1.5 -0.11,-0.031 c -0.297,0.578 -0.312,0.578 -1.39,0.594 l 0.421,-1.5 c 0.047,-0.141 0.125,-0.156 0.532,-0.156 0.937,0 1.172,0.078 1.172,0.484 0,0.094 -0.016,0.172 -0.016,0.266 l 0.125,0.015 z"
         style="fill:#000000;fill-opacity:1;fill-rule:nonzero;stroke:none"
         id="path300" />
      <path
         d="m 376.785,19.711 -0.125,-0.047 c -0.406,0.625 -0.594,0.656 -0.969,0.656 h -2.406 l 1.703,-1.765 c 0.438,-0.485 1.282,-1.391 1.282,-2.453 0,-1.141 -0.907,-1.813 -1.829,-1.813 -0.875,0 -1.828,0.484 -2.125,2 l 0.204,0.047 c 0.234,-0.547 0.531,-1.313 1.453,-1.313 1.187,0 1.437,0.938 1.437,1.438 0,0.766 -0.437,1.672 -1.312,2.609 l -1.797,1.891 v 0.125 h 3.922 z"
         style="fill:#000000;fill-opacity:1;fill-rule:nonzero;stroke:none"
         id="path302" />
      <path
         d="m 365.195,11.645 h 18.668"
         style="fill:none;stroke:#000000;stroke-width:0.59109;stroke-linecap:round;stroke-linejoin:round;stroke-miterlimit:10;stroke-dasharray:none;stroke-opacity:1"
         id="path304" />
      <path
         d="m 0,11.207 c 0.094,0 0.172,0 0.25,0 0.5,0 0.531,0.219 0.672,1 0.094,0.594 0.234,2.219 0.234,2.938 0,0.171 0,0.312 0.078,0.312 0.157,0 0.344,-0.203 1,-0.922 0.328,-0.359 1.828,-2.14 1.828,-3.062 0,-0.375 -0.234,-0.641 -0.562,-0.641 -0.203,0 -0.375,0.141 -0.375,0.297 0,0.531 0.422,0.422 0.422,0.812 0,0.516 -0.797,1.704 -1.375,2.297 L 1.859,14.566 C 1.797,13.191 1.734,12.363 1.438,11.035 1.375,10.848 1.375,10.832 1.297,10.832 H 1.266 c -0.047,0 -0.532,0.141 -1.266,0.25 z"
         style="fill:#000000;fill-opacity:1;fill-rule:nonzero;stroke:none"
         id="path306" />
      <path
         d="m 4.785,16.477 h 1.563 v -0.11 C 6.066,16.336 5.91,16.32 5.91,16.117 c 0,-0.156 0.031,-0.281 0.063,-0.406 L 6.77,12.867 C 6.879,12.461 6.973,12.461 7.285,12.398 V 12.289 H 5.707 v 0.109 c 0.281,0.032 0.453,0.047 0.453,0.266 0,0.125 -0.031,0.281 -0.078,0.406 l -0.781,2.828 c -0.11,0.407 -0.203,0.422 -0.516,0.469 z"
         style="fill:#000000;fill-opacity:1;fill-rule:nonzero;stroke:none"
         id="path308" />
      <path
         d="m 11.574,12.289 h -1.281 v 0.109 c 0.359,0.016 0.453,0.094 0.453,0.344 0,0.11 -0.047,0.219 -0.062,0.313 l -0.657,2.406 H 10.012 L 8.699,12.289 H 7.668 v 0.109 c 0.297,0.016 0.437,0.125 0.547,0.36 L 7.449,15.43 c -0.234,0.828 -0.312,0.89 -0.656,0.937 v 0.11 h 1.266 v -0.11 c -0.188,0 -0.454,-0.031 -0.454,-0.281 0,-0.047 0.016,-0.172 0.063,-0.328 L 8.387,13.086 H 8.418 L 9.871,16.57 H 9.98 l 0.922,-3.218 c 0.219,-0.782 0.25,-0.86 0.672,-0.954 z"
         style="fill:#000000;fill-opacity:1;fill-rule:nonzero;stroke:none"
         id="path310" />
      <path
         d="m 280.051,11.516 1.824,1.824 1.832,-1.824 0.344,0.339 -1.832,1.829 1.816,1.824 -0.328,0.336 -1.824,-1.828 -1.832,1.828 -0.344,-0.344 1.832,-1.828 -1.82,-1.824 z"
         style="fill:#000000;fill-opacity:1;fill-rule:nonzero;stroke:none"
         id="path312" />
      <path
         d="m 292.02,14.883 -0.125,-0.047 c -0.407,0.625 -0.594,0.656 -0.969,0.656 h -2.406 l 1.703,-1.765 c 0.437,-0.485 1.281,-1.391 1.281,-2.454 0,-1.14 -0.906,-1.812 -1.828,-1.812 -0.875,0 -1.828,0.484 -2.125,2 l 0.203,0.047 c 0.234,-0.547 0.531,-1.313 1.453,-1.313 1.188,0 1.438,0.938 1.438,1.438 0,0.765 -0.438,1.672 -1.313,2.609 l -1.797,1.891 v 0.125 h 3.922 z"
         style="fill:#000000;fill-opacity:1;fill-rule:nonzero;stroke:none"
         id="path314" />
      <path
         d="m 160.863,20.66 h -1.875 v 0.172 c 0.203,0.016 0.641,0.063 0.641,0.344 0,0.281 -0.438,1.031 -0.531,1.187 l -2.032,3.516 h -0.046 l -0.657,-4.391 c 0,-0.062 0,-0.109 0,-0.156 0,-0.406 0.297,-0.453 0.766,-0.5 V 20.66 h -2.422 v 0.172 c 0.563,0.063 0.594,0.125 0.797,1.359 l 0.859,5.235 h 0.188 l 3.75,-6.188 c 0.062,-0.109 0.25,-0.406 0.562,-0.406 z"
         style="fill:#000000;fill-opacity:1;fill-rule:nonzero;stroke:none"
         id="path316" />
      <path
         d="m 165.293,24.258 h -1.281 v 0.109 c 0.359,0.016 0.453,0.094 0.453,0.344 0,0.109 -0.047,0.219 -0.063,0.312 l -0.656,2.407 h -0.016 l -1.312,-3.172 h -1.031 v 0.109 c 0.297,0.016 0.437,0.125 0.547,0.36 l -0.766,2.671 c -0.234,0.829 -0.313,0.891 -0.656,0.938 v 0.109 h 1.265 v -0.109 c -0.187,0 -0.453,-0.031 -0.453,-0.281 0,-0.047 0.016,-0.172 0.063,-0.328 l 0.718,-2.672 h 0.032 l 1.453,3.484 h 0.109 l 0.922,-3.219 c 0.219,-0.781 0.25,-0.859 0.672,-0.953 z"
         style="fill:#000000;fill-opacity:1;fill-rule:nonzero;stroke:none"
         id="path318" />
      <path
         d="m 307.336,21.207 h -1.875 v 0.172 c 0.203,0.016 0.641,0.062 0.641,0.344 0,0.281 -0.438,1.031 -0.532,1.187 l -2.031,3.516 h -0.047 l -0.656,-4.391 c 0,-0.062 0,-0.109 0,-0.156 0,-0.406 0.297,-0.453 0.766,-0.5 v -0.172 h -2.422 v 0.172 c 0.562,0.062 0.593,0.125 0.797,1.359 l 0.859,5.235 h 0.187 l 3.75,-6.188 c 0.063,-0.109 0.25,-0.406 0.563,-0.406 z"
         style="fill:#000000;fill-opacity:1;fill-rule:nonzero;stroke:none"
         id="path320" />
      <path
         d="m 311.77,24.695 h -1.282 v 0.11 c 0.36,0.015 0.453,0.093 0.453,0.343 0,0.11 -0.046,0.219 -0.062,0.313 l -0.656,2.406 h -0.016 l -1.312,-3.172 h -1.032 v 0.11 c 0.297,0.015 0.438,0.125 0.547,0.359 l -0.765,2.672 c -0.235,0.828 -0.313,0.891 -0.657,0.937 v 0.11 h 1.266 v -0.11 c -0.188,0 -0.453,-0.031 -0.453,-0.281 0,-0.047 0.015,-0.172 0.062,-0.328 l 0.719,-2.672 h 0.031 l 1.453,3.485 h 0.11 l 0.922,-3.219 c 0.218,-0.781 0.25,-0.86 0.672,-0.953 z"
         style="fill:#000000;fill-opacity:1;fill-rule:nonzero;stroke:none"
         id="path322" />
      <path
         d="m 311.512,27.09 h 3.285 v 0.301 h -3.285 z"
         style="fill:#000000;fill-opacity:1;fill-rule:nonzero;stroke:none"
         id="path324" />
      <path
         d="m 315.656,28.883 h 1.782 v -0.094 c -0.485,0 -0.61,-0.078 -0.61,-0.375 V 24.57 l -0.062,-0.015 -1.141,0.578 v 0.094 c 0.344,-0.141 0.344,-0.141 0.422,-0.141 0.219,0 0.219,0.172 0.219,0.297 v 2.906 c 0,0.469 -0.235,0.484 -0.61,0.5 z"
         style="fill:#000000;fill-opacity:1;fill-rule:nonzero;stroke:none"
         id="path326" />
    </g>
    <g
       id="g328">
      <g
         id="g330"
         clip-path="url(#clipPath334)">
        <g
           id="g336">
          <g
             id="g338">
            <g
               id="g340"
               clip-path="url(#clipPath344)">
              <g
                 id="g346">
                <path
                   d="m 60.496,102.629 c 0.516,0.031 0.766,0.094 0.766,0.422 0,0.203 -0.078,0.515 -0.11,0.625 l -1.234,4.453 c -0.172,0.625 -0.328,0.656 -0.813,0.75 v 0.156 h 2.547 c 2.953,0 4.578,-1.859 4.578,-3.89 0,-1.063 -0.625,-2.688 -2.937,-2.688 h -2.797 z m 1.844,0.422 c 0.031,-0.141 0.078,-0.281 0.64,-0.281 1.782,0 2.125,1.234 2.125,2.25 0,0.609 -0.328,3.718 -3.5,3.718 -0.468,0 -0.718,-0.062 -0.718,-0.39 0,-0.172 0.14,-0.61 0.234,-0.938 z"
                   style="fill:#000000;fill-opacity:1;fill-rule:nonzero;stroke:none"
                   id="path348" />
              </g>
            </g>
          </g>
        </g>
      </g>
    </g>
    <g
       id="g350">
      <path
         d="m 71.637,105.949 h -1.282 v 0.11 c 0.36,0.015 0.454,0.093 0.454,0.343 0,0.11 -0.047,0.219 -0.063,0.313 l -0.656,2.406 h -0.016 l -1.312,-3.172 H 67.73 v 0.11 c 0.297,0.015 0.438,0.125 0.547,0.359 l -0.765,2.672 c -0.235,0.828 -0.313,0.89 -0.657,0.937 v 0.11 h 1.266 v -0.11 c -0.187,0 -0.453,-0.031 -0.453,-0.281 0,-0.047 0.016,-0.172 0.062,-0.328 l 0.719,-2.672 h 0.031 l 1.454,3.484 h 0.109 l 0.922,-3.218 c 0.219,-0.782 0.25,-0.86 0.672,-0.953 z"
         style="fill:#000000;fill-opacity:1;fill-rule:nonzero;stroke:none"
         id="path352" />
      <path
         d="m 71.379,108.34 h 3.285 v 0.301 h -3.285 z"
         style="fill:#000000;fill-opacity:1;fill-rule:nonzero;stroke:none"
         id="path354" />
      <path
         d="m 75.523,110.137 h 1.782 v -0.094 c -0.485,0 -0.61,-0.078 -0.61,-0.375 v -3.844 l -0.062,-0.015 -1.141,0.578 v 0.093 c 0.344,-0.14 0.344,-0.14 0.422,-0.14 0.219,0 0.219,0.172 0.219,0.297 v 2.906 c 0,0.469 -0.235,0.484 -0.61,0.5 z"
         style="fill:#000000;fill-opacity:1;fill-rule:nonzero;stroke:none"
         id="path356" />
    </g>
    <g
       id="g358">
      <g
         id="g360"
         clip-path="url(#clipPath364)">
        <g
           id="g366">
          <g
             id="g368">
            <g
               id="g370"
               clip-path="url(#clipPath374)">
              <g
                 id="g376">
                <path
                   d="m 202.578,103.176 c 0.516,0.031 0.766,0.094 0.766,0.422 0,0.203 -0.078,0.515 -0.11,0.625 L 202,108.676 c -0.172,0.625 -0.328,0.656 -0.812,0.75 v 0.156 h 2.546 c 2.954,0 4.578,-1.859 4.578,-3.891 0,-1.062 -0.624,-2.687 -2.937,-2.687 h -2.797 z m 1.844,0.422 c 0.031,-0.141 0.078,-0.282 0.64,-0.282 1.782,0 2.126,1.235 2.126,2.25 0,0.61 -0.329,3.719 -3.5,3.719 -0.469,0 -0.719,-0.062 -0.719,-0.39 0,-0.172 0.14,-0.61 0.234,-0.938 z"
                   style="fill:#000000;fill-opacity:1;fill-rule:nonzero;stroke:none"
                   id="path378" />
              </g>
            </g>
          </g>
        </g>
      </g>
    </g>
    <g
       id="g380">
      <path
         d="m 213.715,106.605 h -1.281 v 0.11 c 0.359,0.015 0.453,0.094 0.453,0.344 0,0.109 -0.047,0.218 -0.063,0.312 l -0.656,2.406 h -0.016 l -1.312,-3.172 h -1.031 v 0.11 c 0.296,0.015 0.437,0.125 0.546,0.359 l -0.765,2.672 c -0.235,0.828 -0.313,0.891 -0.656,0.938 v 0.109 h 1.265 v -0.109 c -0.187,0 -0.453,-0.032 -0.453,-0.282 0,-0.047 0.016,-0.172 0.063,-0.328 l 0.718,-2.672 h 0.032 l 1.453,3.485 h 0.109 l 0.922,-3.219 c 0.219,-0.781 0.25,-0.859 0.672,-0.953 z"
         style="fill:#000000;fill-opacity:1;fill-rule:nonzero;stroke:none"
         id="path382" />
      <path
         d="m 213.457,109 h 3.289 v 0.301 h -3.289 z"
         style="fill:#000000;fill-opacity:1;fill-rule:nonzero;stroke:none"
         id="path384" />
      <path
         d="m 220.012,109.918 -0.094,-0.031 c -0.25,0.406 -0.359,0.422 -0.609,0.422 h -1.532 l 1.078,-1.125 c 0.282,-0.313 0.829,-0.891 0.829,-1.563 0,-0.719 -0.579,-1.156 -1.157,-1.156 -0.562,0 -1.172,0.312 -1.359,1.265 l 0.125,0.032 c 0.141,-0.344 0.344,-0.828 0.922,-0.828 0.75,0 0.922,0.593 0.922,0.921 0,0.485 -0.282,1.047 -0.844,1.657 l -1.141,1.203 v 0.078 h 2.5 z"
         style="fill:#000000;fill-opacity:1;fill-rule:nonzero;stroke:none"
         id="path386" />
    </g>
    <g
       id="g388">
      <g
         id="g390"
         clip-path="url(#clipPath394)">
        <g
           id="g396">
          <g
             id="g398">
            <g
               id="g400"
               clip-path="url(#clipPath404)">
              <g
                 id="g406">
                <path
                   d="m 360.473,104.055 c 0.515,0.031 0.765,0.093 0.765,0.422 0,0.203 -0.078,0.515 -0.109,0.625 l -1.234,4.453 c -0.172,0.625 -0.329,0.656 -0.813,0.75 v 0.156 h 2.547 c 2.953,0 4.578,-1.859 4.578,-3.891 0,-1.062 -0.625,-2.687 -2.937,-2.687 h -2.797 z m 1.843,0.422 c 0.032,-0.141 0.079,-0.282 0.641,-0.282 1.781,0 2.125,1.235 2.125,2.25 0,0.61 -0.328,3.719 -3.5,3.719 -0.469,0 -0.719,-0.062 -0.719,-0.391 0,-0.171 0.141,-0.609 0.235,-0.937 z"
                   style="fill:#000000;fill-opacity:1;fill-rule:nonzero;stroke:none"
                   id="path408" />
              </g>
            </g>
          </g>
        </g>
      </g>
    </g>
    <g
       id="g410">
      <path
         d="m 368.562,107.391 c 0.813,0 0.829,1.609 0.829,2.047 0,0.515 -0.016,2.046 -0.829,2.046 -0.828,0 -0.843,-1.531 -0.843,-2.046 0,-0.438 0.015,-2.047 0.843,-2.047 z m 0,-0.157 c -1.187,0 -1.453,1.454 -1.453,2.204 0,0.781 0.266,2.218 1.453,2.218 1.172,0 1.438,-1.437 1.438,-2.218 0,-0.75 -0.266,-2.204 -1.438,-2.204 z"
         style="fill:#000000;fill-opacity:1;fill-rule:nonzero;stroke:none"
         id="path412" />
      <path
         d="m 54.242,2.969 c 0.094,0 0.172,0 0.25,0 0.5,0 0.531,0.219 0.672,1 0.094,0.593 0.234,2.219 0.234,2.937 0,0.172 0,0.313 0.079,0.313 0.156,0 0.343,-0.203 1,-0.922 0.328,-0.359 1.828,-2.141 1.828,-3.063 0,-0.375 -0.235,-0.64 -0.563,-0.64 -0.203,0 -0.375,0.14 -0.375,0.297 0,0.531 0.422,0.421 0.422,0.812 0,0.516 -0.797,1.703 -1.375,2.297 L 56.102,6.328 C 56.039,4.953 55.977,4.125 55.68,2.797 55.617,2.609 55.617,2.594 55.539,2.594 h -0.031 c -0.047,0 -0.531,0.14 -1.266,0.25 z"
         style="fill:#000000;fill-opacity:1;fill-rule:nonzero;stroke:none"
         id="path414" />
      <path
         d="m 61.496,6.242 c 0,0.75 -0.578,1.953 -1.359,1.953 -0.157,0 -0.313,-0.078 -0.313,-0.234 0,-0.25 0.25,-1.125 0.422,-1.531 0.156,-0.438 0.531,-0.735 0.828,-0.735 0.422,0 0.422,0.375 0.422,0.547 z m -2.062,-0.578 0.14,-0.016 h 0.031 c 0.125,0 0.25,0.079 0.25,0.188 0,0.141 -0.656,2.516 -0.828,3.234 -0.062,0.203 -0.093,0.375 -0.437,0.375 v 0.11 h 1.312 V 9.461 c -0.156,0 -0.406,0 -0.406,-0.203 0,-0.125 0.188,-0.844 0.234,-1.047 0.157,0.062 0.282,0.109 0.438,0.109 0.891,0 1.906,-1.078 1.906,-2.062 0,-0.469 -0.187,-0.844 -0.75,-0.844 -0.531,0 -0.89,0.469 -1.047,0.688 h -0.015 l 0.172,-0.594 c 0,-0.031 0.015,-0.047 0.015,-0.063 0,-0.015 -0.015,-0.031 -0.031,-0.031 l -1,0.141 z"
         style="fill:#000000;fill-opacity:1;fill-rule:nonzero;stroke:none"
         id="path416" />
      <path
         d="m 63.117,8.242 h 1.781 V 8.148 c -0.484,0 -0.609,-0.078 -0.609,-0.375 V 3.93 L 64.227,3.914 63.086,4.492 v 0.094 c 0.344,-0.141 0.344,-0.141 0.422,-0.141 0.219,0 0.219,0.172 0.219,0.297 v 2.906 c 0,0.469 -0.235,0.485 -0.61,0.5 z"
         style="fill:#000000;fill-opacity:1;fill-rule:nonzero;stroke:none"
         id="path418" />
      <path
         d="m 197.641,3.738 c 0.093,0 0.171,0 0.25,0 0.5,0 0.531,0.219 0.671,1 0.094,0.594 0.235,2.219 0.235,2.938 0,0.172 0,0.312 0.078,0.312 0.156,0 0.344,-0.203 1,-0.922 0.328,-0.359 1.828,-2.14 1.828,-3.062 0,-0.375 -0.234,-0.641 -0.562,-0.641 -0.203,0 -0.375,0.141 -0.375,0.297 0,0.531 0.422,0.422 0.422,0.813 0,0.515 -0.797,1.703 -1.376,2.297 L 199.5,7.098 c -0.062,-1.375 -0.125,-2.203 -0.422,-3.532 -0.062,-0.187 -0.062,-0.203 -0.14,-0.203 h -0.032 c -0.047,0 -0.531,0.141 -1.265,0.25 z"
         style="fill:#000000;fill-opacity:1;fill-rule:nonzero;stroke:none"
         id="path420" />
      <path
         d="m 204.895,6.898 c 0,0.75 -0.579,1.954 -1.36,1.954 -0.156,0 -0.312,-0.079 -0.312,-0.235 0,-0.25 0.25,-1.125 0.422,-1.531 0.156,-0.438 0.531,-0.734 0.828,-0.734 0.422,0 0.422,0.375 0.422,0.546 z m -2.063,-0.578 0.141,-0.015 h 0.031 c 0.125,0 0.25,0.078 0.25,0.187 0,0.141 -0.656,2.516 -0.828,3.235 -0.063,0.203 -0.094,0.375 -0.438,0.375 v 0.109 h 1.313 v -0.094 c -0.156,0 -0.406,0 -0.406,-0.203 0,-0.125 0.187,-0.844 0.234,-1.047 0.156,0.063 0.281,0.11 0.437,0.11 0.891,0 1.907,-1.079 1.907,-2.063 0,-0.469 -0.188,-0.844 -0.75,-0.844 -0.532,0 -0.891,0.469 -1.047,0.688 h -0.016 l 0.172,-0.594 c 0,-0.031 0.016,-0.047 0.016,-0.062 0,-0.016 -0.016,-0.032 -0.032,-0.032 l -1,0.141 z"
         style="fill:#000000;fill-opacity:1;fill-rule:nonzero;stroke:none"
         id="path422" />
      <path
         d="M 208.703,8.023 208.609,7.992 C 208.359,8.398 208.25,8.414 208,8.414 h -1.531 l 1.078,-1.125 c 0.281,-0.312 0.828,-0.891 0.828,-1.562 0,-0.719 -0.578,-1.157 -1.156,-1.157 -0.563,0 -1.172,0.313 -1.36,1.266 l 0.125,0.031 c 0.141,-0.344 0.344,-0.828 0.922,-0.828 0.75,0 0.922,0.594 0.922,0.922 0,0.484 -0.281,1.047 -0.844,1.656 l -1.14,1.203 v 0.078 h 2.5 z"
         style="fill:#000000;fill-opacity:1;fill-rule:nonzero;stroke:none"
         id="path424" />
    </g>
    <g
       id="g426">
      <g
         id="g428"
         clip-path="url(#clipPath432)">
        <g
           id="g434">
          <g
             id="g436">
            <g
               id="g438"
               clip-path="url(#clipPath442)">
              <g
                 id="g444">
                <path
                   d="m 261.27,17.133 h -5.465 v -0.195 l 2.8,-3.368 -2.8,-3.523 V 9.855 h 5.3 l 0.165,1.809 h -0.219 c -0.055,-0.492 -0.188,-0.844 -0.41,-1.055 -0.219,-0.211 -0.539,-0.316 -0.953,-0.316 h -2.504 l 2.3,2.891 -2.582,3.105 h 2.84 c 0.473,0 0.832,-0.09 1.07,-0.269 0.235,-0.176 0.434,-0.512 0.59,-1.004 l 0.2,0.054 z"
                   style="fill:#000000;fill-opacity:1;fill-rule:nonzero;stroke:none"
                   id="path446" />
              </g>
            </g>
          </g>
        </g>
      </g>
    </g>
  </g>
</svg>
